<svg xmlns="http://www.w3.org/2000/svg" width="1500" viewBox="0 0 1500 450" height="450" version="1.0"><defs><clipPath id="a"><path d="M 595 116.523438 L 740 116.523438 L 740 262 L 595 262 Z M 595 116.523438"/></clipPath><clipPath id="b"><path d="M 584.070312 137 L 915 137 L 915 333.273438 L 584.070312 333.273438 Z M 584.070312 137"/></clipPath></defs><path fill="#FFF" d="M-150 -45H1650V495H-150z"/><path fill="#FFF" d="M-150 -45H1650V495H-150z"/><path fill="#FFBDE6" d="M-150 -45H1650V495H-150z"/><g clip-path="url(#a)"><path fill="#FCE666" d="M 706.039062 220.421875 C 672.835938 220.421875 645.929688 194.113281 645.929688 161.660156 C 645.929688 143.507812 654.351562 127.289062 667.574219 116.511719 C 627.382812 117.265625 595.019531 149.277344 595.019531 188.734375 C 595.019531 228.648438 628.140625 261.019531 669.011719 261.019531 C 702.125 261.019531 730.160156 239.746094 739.59375 210.421875 C 730.003906 216.730469 718.464844 220.421875 706.039062 220.421875 Z M 706.039062 220.421875"/></g><g clip-path="url(#b)"><path fill="#F7F7F5" d="M 862.035156 200.617188 C 855.449219 164.53125 823.953125 137.15625 785.953125 137.15625 C 759.261719 137.15625 735.730469 150.671875 721.804688 171.222656 C 717.773438 169.289062 713.324219 168.121094 708.546875 168.121094 C 691.441406 168.121094 677.582031 181.984375 677.582031 199.085938 L 677.605469 199.34375 L 672.421875 199.085938 C 641.078125 199.085938 615.660156 224.515625 615.660156 255.863281 C 615.660156 257.777344 615.761719 259.644531 615.949219 261.515625 C 598.320312 263.910156 584.699219 278.867188 584.699219 297.144531 C 584.699219 317.109375 600.871094 333.273438 620.820312 333.273438 L 847.875 333.273438 C 884.933594 333.273438 914.960938 303.238281 914.960938 266.179688 C 914.953125 233.988281 892.269531 207.105469 862.035156 200.617188 Z M 862.035156 200.617188"/></g></svg>
