<svg xmlns="http://www.w3.org/2000/svg" width="1500" viewBox="0 0 1500 450" height="450" version="1.0"><defs><clipPath id="a"><path d="M 597.558594 92.886719 L 902.808594 92.886719 L 902.808594 254.886719 L 597.558594 254.886719 Z M 597.558594 92.886719"/></clipPath></defs><g clip-path="url(#a)"><path fill="#F7F7F5" d="M 846.949219 143.082031 C 841.886719 143.082031 836.988281 143.765625 832.324219 145.03125 C 821.914062 114.734375 793.195312 92.953125 759.375 92.953125 C 727.285156 92.953125 699.78125 112.554688 688.15625 140.4375 C 684.015625 139.125 679.601562 138.410156 675.023438 138.410156 C 651.046875 138.410156 631.609375 157.851562 631.609375 181.835938 C 631.609375 181.863281 631.613281 181.890625 631.613281 181.917969 C 612.597656 183.15625 597.558594 198.964844 597.558594 218.292969 C 597.558594 238.429688 613.878906 254.753906 634.011719 254.753906 C 634.570312 254.753906 635.121094 254.734375 635.675781 254.710938 L 635.679688 254.753906 L 635.960938 254.699219 C 636.210938 254.6875 636.457031 254.660156 636.707031 254.644531 L 842.664062 254.644531 C 844.078125 254.75 845.507812 254.820312 846.949219 254.820312 C 877.800781 254.820312 902.808594 229.808594 902.808594 198.953125 C 902.808594 168.097656 877.800781 143.082031 846.949219 143.082031 Z M 846.949219 143.082031"/></g></svg>