<svg xmlns="http://www.w3.org/2000/svg" width="1500" viewBox="0 0 1500 450" height="450" version="1.0"><defs><clipPath id="a"><path d="M 593.042969 146 L 907.292969 146 L 907.292969 335 L 593.042969 335 Z M 593.042969 146"/></clipPath><clipPath id="b"><path d="M 781 319 L 814 319 L 814 350.683594 L 781 350.683594 Z M 781 319"/></clipPath><clipPath id="c"><path d="M 833 99.433594 L 866 99.433594 L 866 131 L 833 131 Z M 833 99.433594"/></clipPath></defs><g clip-path="url(#a)"><path fill="#F7F7F5" d="M 863.414062 221.542969 C 854.535156 178.722656 816.589844 146.542969 771.117188 146.542969 C 740.375 146.542969 713.152344 161.320312 695.941406 184.082031 C 693.160156 183.5 690.273438 183.183594 687.320312 183.183594 C 669.554688 183.183594 654.402344 194.257812 648.3125 209.855469 C 617.183594 213.605469 593.046875 240.050781 593.046875 272.167969 C 593.046875 306.855469 621.1875 334.980469 655.894531 334.980469 L 849.679688 334.980469 C 881.492188 334.980469 907.289062 309.203125 907.289062 277.402344 C 907.289062 250.34375 888.585938 227.707031 863.414062 221.542969 Z M 863.414062 221.542969"/></g><path fill="#FCE666" d="M 808.824219 252.824219 C 758.199219 252.824219 717.152344 211.808594 717.152344 161.203125 C 717.152344 150.542969 719.066406 140.355469 722.417969 130.839844 C 686.75 143.382812 661.132812 177.257812 661.132812 217.191406 C 661.132812 267.792969 702.171875 308.808594 752.804688 308.808594 C 792.761719 308.808594 826.660156 283.207031 839.203125 247.5625 C 829.683594 250.90625 819.484375 252.824219 808.824219 252.824219 Z M 808.824219 252.824219"/><path fill="#FCE666" d="M 758.496094 158.046875 L 739.695312 151.777344 L 758.496094 145.511719 C 763.96875 143.691406 768.261719 139.398438 770.089844 133.925781 L 776.355469 115.136719 L 782.625 133.929688 C 784.445312 139.398438 788.742188 143.691406 794.21875 145.519531 L 813.015625 151.777344 L 794.214844 158.046875 C 788.742188 159.863281 784.445312 164.160156 782.617188 169.632812 L 776.355469 188.417969 L 770.085938 169.628906 C 768.261719 164.160156 763.96875 159.863281 758.496094 158.046875 Z M 758.496094 158.046875"/><path fill="#FCE666" d="M 818.519531 218.171875 L 807.777344 214.589844 L 818.519531 211.007812 C 821.644531 209.96875 824.105469 207.511719 825.144531 204.386719 L 828.726562 193.652344 L 832.3125 204.386719 C 833.351562 207.511719 835.808594 209.96875 838.9375 211.007812 L 849.679688 214.589844 L 838.9375 218.171875 C 835.808594 219.210938 833.351562 221.667969 832.3125 224.792969 L 828.726562 235.527344 L 825.144531 224.792969 C 824.105469 221.660156 821.652344 219.210938 818.519531 218.171875 Z M 818.519531 218.171875"/><path fill="#FCE666" d="M 637.761719 274.855469 L 629.710938 272.167969 L 637.761719 269.484375 C 640.109375 268.703125 641.949219 266.859375 642.734375 264.515625 L 645.421875 256.464844 L 648.109375 264.515625 C 648.890625 266.859375 650.734375 268.699219 653.078125 269.484375 L 661.132812 272.167969 L 653.078125 274.855469 C 650.734375 275.632812 648.890625 277.476562 648.109375 279.824219 L 645.421875 287.871094 L 642.734375 279.824219 C 641.953125 277.476562 640.109375 275.632812 637.761719 274.855469 Z M 637.761719 274.855469"/><g clip-path="url(#b)"><path fill="#FCE666" d="M 789.644531 337.667969 L 781.59375 334.980469 L 789.644531 332.296875 C 791.992188 331.515625 793.832031 329.671875 794.617188 327.328125 L 797.304688 319.277344 L 799.992188 327.328125 C 800.773438 329.671875 802.617188 331.511719 804.960938 332.296875 L 813.015625 334.980469 L 804.960938 337.667969 C 802.617188 338.445312 800.777344 340.289062 799.992188 342.636719 L 797.304688 350.683594 L 794.617188 342.636719 C 793.835938 340.289062 791.992188 338.445312 789.644531 337.667969 Z M 789.644531 337.667969"/></g><path fill="#FCE666" d="M 658.710938 133.527344 L 650.660156 130.839844 L 658.710938 128.15625 C 661.058594 127.375 662.898438 125.53125 663.683594 123.1875 L 666.371094 115.136719 L 669.058594 123.1875 C 669.839844 125.53125 671.683594 127.371094 674.027344 128.15625 L 682.082031 130.839844 L 674.027344 133.527344 C 671.683594 134.304688 669.839844 136.148438 669.058594 138.496094 L 666.371094 146.542969 L 663.683594 138.496094 C 662.902344 136.148438 661.058594 134.304688 658.710938 133.527344 Z M 658.710938 133.527344"/><g clip-path="url(#c)"><path fill="#FCE666" d="M 842.019531 117.824219 L 833.964844 115.136719 L 842.019531 112.453125 C 844.367188 111.671875 846.207031 109.828125 846.992188 107.484375 L 849.679688 99.433594 L 852.363281 107.484375 C 853.144531 109.828125 854.992188 111.667969 857.335938 112.453125 L 865.390625 115.136719 L 857.335938 117.824219 C 854.992188 118.601562 853.148438 120.445312 852.363281 122.792969 L 849.679688 130.839844 L 846.992188 122.792969 C 846.210938 120.445312 844.367188 118.601562 842.019531 117.824219 Z M 842.019531 117.824219"/></g></svg>
