<svg xmlns="http://www.w3.org/2000/svg" width="1500" viewBox="0 0 1500 450" height="450" version="1.0"><defs><clipPath id="a"><path d="M 597.558594 92.886719 L 902.808594 92.886719 L 902.808594 254.886719 L 597.558594 254.886719 Z M 597.558594 92.886719"/></clipPath><clipPath id="b"><path d="M 727 317.96875 L 772 317.96875 L 772 396 L 727 396 Z M 727 317.96875"/></clipPath><clipPath id="c"><path d="M 663.113281 262.742188 L 708 262.742188 L 708 340 L 663.113281 340 Z M 663.113281 262.742188"/></clipPath><clipPath id="d"><path d="M 795 262.742188 L 839 262.742188 L 839 340 L 795 340 Z M 795 262.742188"/></clipPath></defs><g clip-path="url(#a)"><path fill="#F7F7F5" d="M 846.949219 143.082031 C 841.886719 143.082031 836.988281 143.765625 832.324219 145.03125 C 821.914062 114.734375 793.195312 92.953125 759.375 92.953125 C 727.285156 92.953125 699.78125 112.554688 688.15625 140.4375 C 684.015625 139.125 679.601562 138.410156 675.023438 138.410156 C 651.046875 138.410156 631.609375 157.851562 631.609375 181.835938 C 631.609375 181.863281 631.613281 181.890625 631.613281 181.917969 C 612.597656 183.15625 597.558594 198.964844 597.558594 218.292969 C 597.558594 238.429688 613.878906 254.753906 634.011719 254.753906 C 634.570312 254.753906 635.121094 254.734375 635.675781 254.710938 L 635.679688 254.753906 L 635.960938 254.699219 C 636.210938 254.6875 636.457031 254.660156 636.707031 254.644531 L 842.664062 254.644531 C 844.078125 254.75 845.507812 254.820312 846.949219 254.820312 C 877.800781 254.820312 902.808594 229.808594 902.808594 198.953125 C 902.808594 168.097656 877.800781 143.082031 846.949219 143.082031 Z M 846.949219 143.082031"/></g><path fill="#81DBEA" d="M 749.316406 318.445312 C 749.316406 318.445312 726.667969 357.628906 727.996094 373.285156 C 727.984375 385.03125 737.5 394.5625 749.246094 394.574219 C 760.992188 394.585938 770.523438 385.070312 770.535156 373.324219 C 771.894531 357.667969 749.316406 318.445312 749.316406 318.445312"/><g clip-path="url(#b)"><path fill="#81DBEA" d="M 749.316406 318.445312 L 748.90625 318.207031 C 748.902344 318.214844 743.550781 327.46875 738.199219 338.789062 C 735.523438 344.449219 732.84375 350.628906 730.832031 356.433594 C 728.820312 362.242188 727.46875 367.671875 727.464844 371.886719 C 727.464844 372.382812 727.484375 372.863281 727.523438 373.324219 L 727.996094 373.285156 L 727.523438 373.285156 L 727.523438 373.304688 C 727.523438 385.304688 737.242188 395.039062 749.246094 395.050781 L 749.265625 395.050781 C 761.265625 395.050781 770.996094 385.328125 771.011719 373.324219 L 770.535156 373.324219 L 771.007812 373.363281 C 771.050781 372.890625 771.070312 372.402344 771.070312 371.894531 C 771.066406 367.671875 769.71875 362.242188 767.71875 356.433594 C 761.707031 339.015625 749.734375 318.222656 749.726562 318.210938 C 749.644531 318.0625 749.484375 317.96875 749.316406 317.96875 C 749.144531 317.96875 748.988281 318.0625 748.90625 318.207031 L 749.316406 318.445312 L 748.90625 318.683594 C 748.90625 318.683594 748.988281 318.824219 749.140625 319.097656 C 750.304688 321.152344 755.5625 330.539062 760.519531 341.328125 C 762.996094 346.722656 765.402344 352.46875 767.183594 357.816406 C 768.964844 363.164062 770.121094 368.121094 770.117188 371.894531 C 770.117188 372.375 770.097656 372.839844 770.0625 373.285156 L 770.058594 373.324219 C 770.046875 384.800781 760.738281 394.101562 749.265625 394.101562 L 749.246094 394.101562 C 737.769531 394.089844 728.472656 384.777344 728.472656 373.304688 L 728.472656 373.285156 L 728.46875 373.246094 C 728.433594 372.8125 728.417969 372.359375 728.417969 371.886719 C 728.414062 367.871094 729.734375 362.5 731.730469 356.746094 C 734.722656 348.109375 739.222656 338.585938 742.976562 331.230469 C 744.851562 327.550781 746.539062 324.414062 747.757812 322.195312 C 748.367188 321.085938 748.863281 320.207031 749.203125 319.605469 C 749.371094 319.304688 749.503906 319.078125 749.589844 318.921875 C 749.679688 318.765625 749.726562 318.683594 749.726562 318.683594 L 749.316406 318.445312 L 748.90625 318.683594 L 749.316406 318.445312"/></g><path fill="#81DBEA" d="M 747.445312 389.195312 C 746.21875 389.195312 745.214844 388.199219 745.21875 386.964844 C 745.21875 385.734375 746.21875 384.734375 747.453125 384.734375 C 755 384.742188 761.148438 378.605469 761.15625 371.054688 C 761.15625 370.992188 761.160156 370.925781 761.160156 370.867188 C 761.339844 368.867188 760.953125 364.898438 758.132812 357.296875 C 757.703125 356.140625 758.292969 354.859375 759.449219 354.429688 C 760.597656 354.003906 761.878906 354.59375 762.3125 355.742188 C 764.820312 362.5 765.902344 367.546875 765.617188 371.152344 C 765.550781 381.125 757.421875 389.207031 747.445312 389.195312"/><path fill="#81DBEA" d="M 685.835938 263.21875 C 685.835938 263.21875 663.1875 302.402344 664.515625 318.058594 C 664.507812 329.804688 674.019531 339.335938 685.765625 339.347656 C 697.511719 339.359375 707.042969 329.84375 707.054688 318.097656 C 708.414062 302.441406 685.835938 263.21875 685.835938 263.21875"/><g clip-path="url(#c)"><path fill="#81DBEA" d="M 685.835938 263.21875 L 685.425781 262.980469 C 685.421875 262.988281 680.070312 272.242188 674.71875 283.5625 C 672.042969 289.222656 669.363281 295.402344 667.351562 301.207031 C 665.339844 307.015625 663.988281 312.445312 663.988281 316.660156 C 663.988281 317.15625 664.003906 317.636719 664.042969 318.097656 L 664.515625 318.058594 L 664.042969 318.058594 L 664.042969 318.078125 C 664.042969 330.078125 673.765625 339.8125 685.765625 339.824219 L 685.785156 339.824219 C 697.785156 339.824219 707.515625 330.097656 707.53125 318.097656 L 707.054688 318.097656 L 707.527344 318.136719 C 707.570312 317.664062 707.589844 317.175781 707.589844 316.667969 C 707.585938 312.445312 706.238281 307.015625 704.238281 301.207031 C 698.226562 283.789062 686.253906 262.996094 686.246094 262.984375 C 686.164062 262.832031 686.007812 262.742188 685.835938 262.742188 C 685.667969 262.742188 685.511719 262.832031 685.425781 262.980469 L 685.835938 263.21875 L 685.425781 263.457031 C 685.425781 263.457031 685.507812 263.597656 685.660156 263.871094 C 686.828125 265.925781 692.082031 275.3125 697.039062 286.101562 C 699.519531 291.496094 701.921875 297.242188 703.703125 302.589844 C 705.488281 307.9375 706.640625 312.894531 706.640625 316.667969 C 706.640625 317.148438 706.617188 317.613281 706.582031 318.054688 L 706.578125 318.097656 C 706.570312 329.574219 697.257812 338.875 685.785156 338.875 L 685.765625 338.875 C 674.289062 338.863281 664.992188 329.550781 664.992188 318.078125 L 664.992188 318.019531 C 664.953125 317.585938 664.9375 317.132812 664.9375 316.660156 C 664.933594 312.644531 666.253906 307.273438 668.25 301.519531 C 671.242188 292.882812 675.746094 283.359375 679.496094 276 C 681.371094 272.324219 683.058594 269.1875 684.28125 266.96875 C 684.886719 265.859375 685.382812 264.980469 685.722656 264.378906 C 685.890625 264.078125 686.023438 263.847656 686.113281 263.695312 C 686.199219 263.539062 686.246094 263.457031 686.246094 263.457031 L 685.835938 263.21875 L 685.425781 263.457031 L 685.835938 263.21875"/></g><path fill="#81DBEA" d="M 683.964844 333.96875 C 682.738281 333.96875 681.738281 332.972656 681.738281 331.738281 C 681.742188 330.507812 682.742188 329.507812 683.972656 329.507812 C 691.519531 329.515625 697.667969 323.378906 697.675781 315.828125 C 697.675781 315.765625 697.683594 315.699219 697.683594 315.640625 C 697.859375 313.640625 697.472656 309.671875 694.65625 302.070312 C 694.222656 300.914062 694.8125 299.632812 695.96875 299.203125 C 697.117188 298.777344 698.402344 299.367188 698.832031 300.515625 C 701.339844 307.273438 702.421875 312.316406 702.136719 315.925781 C 702.074219 325.898438 693.941406 333.980469 683.964844 333.96875"/><path fill="#81DBEA" d="M 816.960938 263.21875 C 816.960938 263.21875 794.3125 302.402344 795.644531 318.058594 C 795.632812 329.804688 805.144531 339.335938 816.894531 339.347656 C 828.636719 339.359375 838.171875 329.84375 838.179688 318.097656 C 839.539062 302.441406 816.960938 263.21875 816.960938 263.21875"/><g clip-path="url(#d)"><path fill="#81DBEA" d="M 816.960938 263.21875 L 816.550781 262.980469 C 816.546875 262.988281 811.199219 272.242188 805.847656 283.5625 C 803.167969 289.222656 800.492188 295.402344 798.476562 301.207031 C 796.46875 307.015625 795.113281 312.445312 795.113281 316.660156 C 795.113281 317.15625 795.132812 317.636719 795.171875 318.097656 L 795.644531 318.058594 L 795.167969 318.058594 L 795.167969 318.078125 C 795.167969 330.078125 804.890625 339.8125 816.890625 339.824219 L 816.910156 339.824219 C 828.910156 339.824219 838.644531 330.097656 838.65625 318.097656 L 838.179688 318.097656 L 838.65625 318.136719 C 838.695312 317.664062 838.714844 317.175781 838.714844 316.667969 C 838.710938 312.445312 837.367188 307.015625 835.363281 301.207031 C 829.355469 283.789062 817.382812 262.996094 817.375 262.984375 C 817.289062 262.832031 817.132812 262.742188 816.964844 262.742188 C 816.792969 262.742188 816.636719 262.832031 816.550781 262.980469 L 816.960938 263.21875 L 816.550781 263.457031 C 816.550781 263.457031 816.632812 263.597656 816.785156 263.871094 C 817.953125 265.925781 823.207031 275.3125 828.164062 286.101562 C 830.644531 291.496094 833.046875 297.242188 834.832031 302.589844 C 836.613281 307.9375 837.765625 312.894531 837.765625 316.667969 C 837.765625 317.148438 837.746094 317.613281 837.707031 318.054688 L 837.707031 318.097656 C 837.695312 329.574219 828.386719 338.875 816.910156 338.875 L 816.894531 338.875 C 805.414062 338.863281 796.117188 329.550781 796.117188 318.078125 L 796.117188 318.019531 C 796.078125 317.585938 796.0625 317.132812 796.0625 316.660156 C 796.058594 312.644531 797.378906 307.273438 799.375 301.519531 C 802.367188 292.882812 806.871094 283.359375 810.621094 276 C 812.5 272.324219 814.1875 269.1875 815.40625 266.96875 C 816.015625 265.859375 816.507812 264.980469 816.847656 264.378906 C 817.015625 264.078125 817.148438 263.847656 817.238281 263.695312 C 817.328125 263.539062 817.375 263.457031 817.375 263.457031 L 816.960938 263.21875 L 816.550781 263.457031 L 816.960938 263.21875"/></g><path fill="#81DBEA" d="M 815.09375 333.96875 C 813.863281 333.96875 812.863281 332.972656 812.863281 331.738281 C 812.867188 330.507812 813.867188 329.507812 815.097656 329.507812 C 822.644531 329.515625 828.796875 323.378906 828.800781 315.828125 C 828.800781 315.765625 828.808594 315.699219 828.808594 315.640625 C 828.988281 313.640625 828.597656 309.671875 825.78125 302.070312 C 825.351562 300.914062 825.9375 299.632812 827.09375 299.203125 C 828.246094 298.777344 829.527344 299.367188 829.960938 300.515625 C 832.46875 307.273438 833.550781 312.316406 833.265625 315.925781 C 833.199219 325.898438 825.066406 333.980469 815.09375 333.96875"/></svg>