<svg xmlns="http://www.w3.org/2000/svg" width="1500" viewBox="0 0 1500 450" height="450" version="1.0"><path fill="#F7F7F5" d="M 750.101562 361.777344 C 749.410156 361.777344 748.730469 361.710938 748.050781 361.574219 C 747.375 361.441406 746.71875 361.242188 746.082031 360.976562 C 745.445312 360.710938 744.839844 360.390625 744.265625 360.003906 C 743.691406 359.621094 743.160156 359.1875 742.675781 358.699219 C 742.1875 358.210938 741.75 357.679688 741.367188 357.105469 C 740.984375 356.53125 740.660156 355.925781 740.398438 355.289062 C 740.132812 354.652344 739.933594 353.996094 739.800781 353.316406 C 739.664062 352.640625 739.597656 351.957031 739.597656 351.269531 L 739.597656 99.640625 C 739.597656 98.949219 739.664062 98.265625 739.800781 97.589844 C 739.933594 96.914062 740.132812 96.253906 740.398438 95.617188 C 740.660156 94.980469 740.984375 94.375 741.367188 93.800781 C 741.75 93.226562 742.1875 92.695312 742.675781 92.210938 C 743.160156 91.722656 743.691406 91.285156 744.265625 90.902344 C 744.839844 90.519531 745.445312 90.195312 746.082031 89.929688 C 746.71875 89.667969 747.375 89.46875 748.050781 89.332031 C 748.730469 89.199219 749.410156 89.132812 750.101562 89.132812 C 750.792969 89.132812 751.476562 89.199219 752.152344 89.332031 C 752.828125 89.46875 753.484375 89.667969 754.121094 89.929688 C 754.757812 90.195312 755.363281 90.519531 755.9375 90.902344 C 756.511719 91.285156 757.042969 91.722656 757.53125 92.210938 C 758.015625 92.695312 758.453125 93.226562 758.835938 93.800781 C 759.21875 94.375 759.542969 94.980469 759.804688 95.617188 C 760.070312 96.253906 760.269531 96.914062 760.40625 97.589844 C 760.539062 98.265625 760.605469 98.949219 760.605469 99.640625 L 760.605469 351.269531 C 760.605469 351.957031 760.539062 352.640625 760.40625 353.316406 C 760.269531 353.996094 760.070312 354.652344 759.804688 355.289062 C 759.542969 355.925781 759.21875 356.53125 758.835938 357.105469 C 758.453125 357.679688 758.015625 358.210938 757.53125 358.699219 C 757.042969 359.1875 756.511719 359.621094 755.9375 360.003906 C 755.363281 360.390625 754.757812 360.710938 754.121094 360.976562 C 753.484375 361.242188 752.828125 361.441406 752.152344 361.574219 C 751.476562 361.710938 750.792969 361.777344 750.101562 361.777344 Z M 750.101562 361.777344"/><path fill="#F7F7F5" d="M 750.101562 147.976562 C 749.058594 148.023438 748.042969 147.867188 747.0625 147.515625 C 746.078125 147.160156 745.199219 146.632812 744.421875 145.933594 L 720.972656 122.074219 C 720.601562 121.703125 720.269531 121.296875 719.976562 120.859375 C 719.683594 120.421875 719.433594 119.957031 719.234375 119.46875 C 719.03125 118.984375 718.878906 118.480469 718.777344 117.964844 C 718.671875 117.445312 718.621094 116.921875 718.621094 116.394531 C 718.621094 115.867188 718.671875 115.347656 718.777344 114.828125 C 718.878906 114.3125 719.03125 113.808594 719.234375 113.320312 C 719.433594 112.835938 719.683594 112.371094 719.976562 111.933594 C 720.269531 111.496094 720.601562 111.089844 720.972656 110.714844 C 721.347656 110.34375 721.75 110.011719 722.191406 109.71875 C 722.628906 109.421875 723.089844 109.175781 723.578125 108.972656 C 724.066406 108.773438 724.566406 108.621094 725.085938 108.515625 C 725.601562 108.414062 726.125 108.363281 726.652344 108.363281 C 727.179688 108.363281 727.699219 108.414062 728.21875 108.515625 C 728.734375 108.621094 729.238281 108.773438 729.722656 108.972656 C 730.210938 109.175781 730.675781 109.421875 731.113281 109.71875 C 731.550781 110.011719 731.957031 110.34375 732.328125 110.714844 L 750.101562 128.890625 L 768.101562 110.886719 C 768.472656 110.511719 768.878906 110.179688 769.316406 109.886719 C 769.757812 109.59375 770.21875 109.34375 770.707031 109.140625 C 771.195312 108.941406 771.695312 108.789062 772.214844 108.683594 C 772.730469 108.582031 773.253906 108.527344 773.78125 108.527344 C 774.308594 108.527344 774.832031 108.582031 775.347656 108.683594 C 775.867188 108.785156 776.367188 108.9375 776.855469 109.140625 C 777.34375 109.339844 777.804688 109.589844 778.246094 109.882812 C 778.683594 110.175781 779.089844 110.507812 779.460938 110.882812 C 779.835938 111.253906 780.167969 111.660156 780.460938 112.101562 C 780.753906 112.539062 781 113 781.203125 113.488281 C 781.40625 113.976562 781.558594 114.480469 781.660156 114.996094 C 781.761719 115.515625 781.8125 116.039062 781.8125 116.566406 C 781.8125 117.09375 781.761719 117.617188 781.660156 118.132812 C 781.554688 118.652344 781.402344 119.152344 781.199219 119.640625 C 781 120.128906 780.75 120.589844 780.457031 121.027344 C 780.164062 121.46875 779.832031 121.875 779.457031 122.246094 L 755.78125 145.933594 C 755.003906 146.632812 754.125 147.160156 753.140625 147.515625 C 752.160156 147.867188 751.144531 148.023438 750.101562 147.976562 Z M 750.101562 147.976562"/><path fill="#F7F7F5" d="M 750.101562 182.226562 C 749.042969 182.265625 748.019531 182.09375 747.035156 181.710938 C 746.046875 181.324219 745.175781 180.757812 744.421875 180.011719 L 720.859375 156.441406 C 720.496094 156.066406 720.171875 155.664062 719.886719 155.226562 C 719.605469 154.789062 719.367188 154.328125 719.171875 153.84375 C 718.980469 153.363281 718.835938 152.863281 718.738281 152.351562 C 718.644531 151.839844 718.601562 151.324219 718.605469 150.800781 C 718.613281 150.28125 718.671875 149.765625 718.777344 149.253906 C 718.886719 148.746094 719.042969 148.25 719.25 147.773438 C 719.453125 147.292969 719.703125 146.839844 720 146.410156 C 720.292969 145.980469 720.625 145.585938 721 145.21875 C 721.371094 144.855469 721.777344 144.53125 722.214844 144.25 C 722.652344 143.964844 723.109375 143.726562 723.59375 143.535156 C 724.078125 143.339844 724.578125 143.195312 725.089844 143.101562 C 725.601562 143.003906 726.117188 142.960938 726.636719 142.96875 C 727.160156 142.976562 727.671875 143.03125 728.183594 143.140625 C 728.691406 143.25 729.1875 143.40625 729.664062 143.609375 C 730.144531 143.816406 730.597656 144.066406 731.027344 144.363281 C 731.457031 144.65625 731.851562 144.992188 732.214844 145.363281 L 750.101562 163.257812 L 768.101562 145.25 C 768.464844 144.878906 768.859375 144.542969 769.289062 144.25 C 769.71875 143.953125 770.171875 143.703125 770.652344 143.5 C 771.128906 143.292969 771.625 143.136719 772.132812 143.027344 C 772.644531 142.921875 773.160156 142.863281 773.679688 142.855469 C 774.199219 142.851562 774.714844 142.894531 775.226562 142.988281 C 775.738281 143.085938 776.238281 143.230469 776.722656 143.421875 C 777.203125 143.613281 777.664062 143.855469 778.101562 144.136719 C 778.539062 144.421875 778.941406 144.746094 779.316406 145.109375 C 779.6875 145.472656 780.023438 145.867188 780.316406 146.296875 C 780.613281 146.726562 780.863281 147.183594 781.066406 147.660156 C 781.273438 148.140625 781.429688 148.632812 781.535156 149.144531 C 781.644531 149.652344 781.703125 150.167969 781.707031 150.6875 C 781.714844 151.210938 781.671875 151.726562 781.574219 152.238281 C 781.480469 152.75 781.335938 153.25 781.144531 153.730469 C 780.949219 154.214844 780.710938 154.675781 780.429688 155.113281 C 780.144531 155.550781 779.820312 155.953125 779.457031 156.328125 L 755.78125 180.011719 C 755.027344 180.757812 754.15625 181.324219 753.171875 181.710938 C 752.183594 182.09375 751.160156 182.265625 750.101562 182.226562 Z M 750.101562 182.226562"/><path fill="#F7F7F5" d="M 773.664062 342.292969 C 772.605469 342.316406 771.582031 342.128906 770.597656 341.734375 C 769.609375 341.339844 768.742188 340.769531 767.988281 340.023438 L 750.101562 322.015625 L 732.101562 340.023438 C 731.730469 340.394531 731.324219 340.726562 730.886719 341.019531 C 730.445312 341.3125 729.984375 341.5625 729.496094 341.761719 C 729.011719 341.964844 728.507812 342.117188 727.992188 342.21875 C 727.472656 342.324219 726.953125 342.375 726.425781 342.375 C 725.898438 342.375 725.375 342.324219 724.859375 342.21875 C 724.339844 342.117188 723.839844 341.964844 723.351562 341.761719 C 722.863281 341.5625 722.402344 341.3125 721.964844 341.019531 C 721.523438 340.726562 721.117188 340.394531 720.746094 340.023438 C 720.375 339.648438 720.039062 339.242188 719.746094 338.804688 C 719.453125 338.367188 719.207031 337.902344 719.003906 337.414062 C 718.804688 336.929688 718.652344 336.425781 718.546875 335.910156 C 718.445312 335.390625 718.394531 334.867188 718.394531 334.339844 C 718.394531 333.8125 718.445312 333.292969 718.546875 332.773438 C 718.652344 332.257812 718.804688 331.753906 719.003906 331.265625 C 719.207031 330.78125 719.453125 330.316406 719.746094 329.878906 C 720.039062 329.441406 720.375 329.035156 720.746094 328.660156 L 744.421875 305.316406 C 744.792969 304.933594 745.195312 304.59375 745.628906 304.292969 C 746.066406 303.992188 746.53125 303.738281 747.015625 303.53125 C 747.503906 303.324219 748.007812 303.167969 748.527344 303.0625 C 749.046875 302.957031 749.570312 302.90625 750.101562 302.90625 C 750.632812 302.90625 751.15625 302.957031 751.675781 303.0625 C 752.195312 303.167969 752.699219 303.324219 753.1875 303.53125 C 753.675781 303.738281 754.136719 303.992188 754.574219 304.292969 C 755.007812 304.59375 755.410156 304.933594 755.78125 305.316406 L 779.34375 328.886719 C 779.898438 329.441406 780.363281 330.0625 780.734375 330.75 C 781.105469 331.441406 781.363281 332.171875 781.515625 332.941406 C 781.667969 333.710938 781.703125 334.484375 781.621094 335.261719 C 781.542969 336.042969 781.347656 336.792969 781.042969 337.515625 C 780.738281 338.238281 780.332031 338.898438 779.828125 339.496094 C 779.324219 340.097656 778.746094 340.609375 778.085938 341.035156 C 777.429688 341.460938 776.722656 341.78125 775.972656 341.996094 C 775.21875 342.210938 774.449219 342.308594 773.664062 342.292969 Z M 773.664062 342.292969"/><path fill="#F7F7F5" d="M 773.664062 308.042969 C 772.601562 308.050781 771.578125 307.851562 770.59375 307.449219 C 769.609375 307.042969 768.738281 306.464844 767.988281 305.714844 L 750.101562 287.933594 L 732.101562 305.941406 C 731.730469 306.3125 731.324219 306.648438 730.886719 306.941406 C 730.445312 307.234375 729.984375 307.484375 729.496094 307.683594 C 729.011719 307.886719 728.507812 308.039062 727.988281 308.144531 C 727.472656 308.246094 726.949219 308.296875 726.421875 308.296875 C 725.894531 308.296875 725.371094 308.246094 724.855469 308.144531 C 724.339844 308.042969 723.835938 307.890625 723.347656 307.6875 C 722.859375 307.484375 722.398438 307.238281 721.960938 306.945312 C 721.519531 306.652344 721.113281 306.320312 720.742188 305.945312 C 720.367188 305.570312 720.035156 305.167969 719.742188 304.726562 C 719.449219 304.289062 719.203125 303.824219 719 303.335938 C 718.796875 302.851562 718.644531 302.347656 718.542969 301.828125 C 718.441406 301.3125 718.390625 300.789062 718.390625 300.261719 C 718.390625 299.734375 718.441406 299.210938 718.542969 298.695312 C 718.648438 298.175781 718.800781 297.675781 719.003906 297.1875 C 719.203125 296.699219 719.453125 296.238281 719.746094 295.796875 C 720.039062 295.359375 720.371094 294.953125 720.746094 294.582031 L 744.421875 270.894531 C 744.792969 270.511719 745.195312 270.171875 745.628906 269.871094 C 746.066406 269.570312 746.53125 269.316406 747.015625 269.109375 C 747.503906 268.902344 748.007812 268.746094 748.527344 268.640625 C 749.046875 268.535156 749.570312 268.484375 750.101562 268.484375 C 750.632812 268.484375 751.15625 268.535156 751.675781 268.640625 C 752.195312 268.746094 752.699219 268.902344 753.1875 269.109375 C 753.675781 269.316406 754.136719 269.570312 754.574219 269.871094 C 755.007812 270.171875 755.410156 270.511719 755.78125 270.894531 L 779.34375 294.46875 C 779.894531 295.023438 780.355469 295.644531 780.722656 296.339844 C 781.089844 297.03125 781.347656 297.761719 781.496094 298.53125 C 781.644531 299.300781 781.679688 300.074219 781.597656 300.851562 C 781.515625 301.632812 781.324219 302.382812 781.019531 303.101562 C 780.714844 303.824219 780.3125 304.488281 779.808594 305.089844 C 779.308594 305.691406 778.730469 306.207031 778.078125 306.636719 C 777.421875 307.066406 776.71875 307.390625 775.96875 307.609375 C 775.214844 307.832031 774.449219 307.9375 773.664062 307.929688 Z M 773.664062 308.042969"/><path fill="#F7F7F5" d="M 859.007812 298.839844 C 857.148438 298.835938 855.40625 298.378906 853.785156 297.476562 L 635.914062 171.605469 C 635.351562 171.246094 634.828125 170.835938 634.339844 170.371094 C 633.855469 169.910156 633.417969 169.40625 633.027344 168.863281 C 632.640625 168.316406 632.304688 167.738281 632.027344 167.128906 C 631.746094 166.519531 631.527344 165.890625 631.371094 165.238281 C 631.210938 164.589844 631.117188 163.929688 631.082031 163.257812 C 631.050781 162.589844 631.082031 161.921875 631.179688 161.257812 C 631.273438 160.597656 631.429688 159.949219 631.648438 159.316406 C 631.867188 158.679688 632.144531 158.074219 632.480469 157.496094 C 632.816406 156.914062 633.203125 156.371094 633.644531 155.867188 C 634.082031 155.359375 634.566406 154.898438 635.09375 154.484375 C 635.621094 154.070312 636.179688 153.710938 636.777344 153.40625 C 637.375 153.101562 637.992188 152.851562 638.636719 152.664062 C 639.277344 152.476562 639.933594 152.351562 640.601562 152.292969 C 641.269531 152.230469 641.933594 152.230469 642.601562 152.296875 C 643.269531 152.363281 643.921875 152.488281 644.566406 152.679688 C 645.207031 152.871094 645.824219 153.121094 646.421875 153.429688 L 864.289062 279.300781 C 864.789062 279.585938 865.261719 279.910156 865.707031 280.269531 C 866.15625 280.632812 866.570312 281.03125 866.949219 281.460938 C 867.332031 281.890625 867.675781 282.351562 867.980469 282.839844 C 868.285156 283.324219 868.550781 283.835938 868.773438 284.367188 C 868.992188 284.898438 869.167969 285.441406 869.300781 286.003906 C 869.433594 286.5625 869.515625 287.132812 869.554688 287.707031 C 869.59375 288.28125 869.582031 288.851562 869.527344 289.425781 C 869.46875 290 869.367188 290.5625 869.214844 291.117188 C 869.066406 291.671875 868.871094 292.210938 868.632812 292.734375 C 868.390625 293.257812 868.113281 293.757812 867.789062 294.238281 C 867.46875 294.714844 867.109375 295.160156 866.714844 295.578125 C 866.316406 295.996094 865.890625 296.378906 865.433594 296.726562 C 864.972656 297.074219 864.488281 297.378906 863.980469 297.648438 C 863.46875 297.914062 862.941406 298.136719 862.394531 298.316406 C 861.847656 298.496094 861.292969 298.632812 860.722656 298.71875 C 860.152344 298.808594 859.582031 298.847656 859.007812 298.839844 Z M 859.007812 298.839844"/><path fill="#F7F7F5" d="M 643.980469 199.269531 C 643.507812 199.261719 643.039062 199.214844 642.574219 199.121094 C 642.109375 199.03125 641.660156 198.898438 641.21875 198.726562 C 640.78125 198.550781 640.359375 198.339844 639.957031 198.09375 C 639.554688 197.84375 639.179688 197.558594 638.828125 197.242188 C 638.480469 196.925781 638.160156 196.578125 637.871094 196.203125 C 637.585938 195.828125 637.332031 195.429688 637.117188 195.011719 C 636.902344 194.589844 636.726562 194.152344 636.589844 193.703125 C 636.453125 193.25 636.355469 192.789062 636.304688 192.320312 C 636.25 191.847656 636.238281 191.378906 636.269531 190.90625 C 636.300781 190.433594 636.375 189.96875 636.492188 189.511719 C 636.605469 189.054688 636.761719 188.609375 636.957031 188.179688 C 637.15625 187.75 637.386719 187.339844 637.65625 186.953125 C 637.925781 186.5625 638.230469 186.203125 638.566406 185.871094 C 638.902344 185.539062 639.261719 185.238281 639.652344 184.96875 C 640.042969 184.703125 640.453125 184.472656 640.882812 184.277344 C 641.316406 184.085938 641.757812 183.929688 642.21875 183.820312 L 666.804688 177.230469 L 660.21875 152.578125 C 660.085938 152.082031 660.003906 151.574219 659.972656 151.058594 C 659.9375 150.546875 659.957031 150.035156 660.023438 149.523438 C 660.09375 149.011719 660.210938 148.515625 660.375 148.027344 C 660.542969 147.539062 660.757812 147.074219 661.015625 146.628906 C 661.273438 146.179688 661.570312 145.765625 661.914062 145.378906 C 662.253906 144.992188 662.628906 144.644531 663.035156 144.328125 C 663.445312 144.015625 663.882812 143.746094 664.34375 143.519531 C 664.804688 143.292969 665.285156 143.113281 665.785156 142.980469 C 666.28125 142.847656 666.785156 142.765625 667.300781 142.734375 C 667.8125 142.699219 668.328125 142.71875 668.835938 142.785156 C 669.347656 142.855469 669.847656 142.972656 670.332031 143.140625 C 670.820312 143.304688 671.285156 143.519531 671.734375 143.777344 C 672.179688 144.035156 672.59375 144.332031 672.980469 144.671875 C 673.367188 145.015625 673.714844 145.390625 674.03125 145.796875 C 674.34375 146.207031 674.613281 146.644531 674.839844 147.105469 C 675.066406 147.566406 675.246094 148.046875 675.378906 148.546875 L 684.007812 180.75 C 684.144531 181.253906 684.230469 181.761719 684.265625 182.28125 C 684.296875 182.800781 684.28125 183.316406 684.210938 183.832031 C 684.140625 184.347656 684.019531 184.851562 683.847656 185.34375 C 683.679688 185.832031 683.460938 186.304688 683.195312 186.75 C 682.929688 187.199219 682.625 187.613281 682.277344 188 C 681.929688 188.386719 681.546875 188.734375 681.128906 189.042969 C 680.710938 189.351562 680.265625 189.617188 679.796875 189.835938 C 679.324219 190.058594 678.835938 190.230469 678.332031 190.351562 L 646.136719 198.984375 C 645.429688 199.171875 644.710938 199.265625 643.980469 199.269531 Z M 643.980469 199.269531"/><path fill="#F7F7F5" d="M 673.675781 216.421875 C 673.203125 216.417969 672.734375 216.375 672.269531 216.285156 C 671.804688 216.199219 671.351562 216.070312 670.910156 215.902344 C 670.46875 215.734375 670.046875 215.527344 669.644531 215.28125 C 669.238281 215.039062 668.859375 214.757812 668.503906 214.445312 C 668.152344 214.132812 667.828125 213.792969 667.535156 213.421875 C 667.242188 213.050781 666.984375 212.65625 666.761719 212.238281 C 666.539062 211.820312 666.355469 211.386719 666.210938 210.9375 C 666.066406 210.488281 665.964844 210.027344 665.902344 209.558594 C 665.839844 209.089844 665.820312 208.621094 665.84375 208.148438 C 665.867188 207.675781 665.933594 207.210938 666.039062 206.75 C 666.144531 206.289062 666.292969 205.839844 666.476562 205.40625 C 666.664062 204.972656 666.886719 204.558594 667.148438 204.164062 C 667.410156 203.769531 667.703125 203.402344 668.03125 203.0625 C 668.359375 202.722656 668.714844 202.410156 669.097656 202.132812 C 669.480469 201.855469 669.882812 201.617188 670.308594 201.410156 C 670.734375 201.207031 671.175781 201.042969 671.632812 200.914062 L 696.21875 194.328125 L 689.628906 169.730469 C 689.578125 169.269531 689.570312 168.804688 689.601562 168.339844 C 689.632812 167.871094 689.707031 167.414062 689.820312 166.960938 C 689.933594 166.507812 690.082031 166.070312 690.273438 165.644531 C 690.464844 165.21875 690.691406 164.8125 690.953125 164.425781 C 691.21875 164.042969 691.511719 163.683594 691.839844 163.347656 C 692.164062 163.015625 692.519531 162.714844 692.898438 162.441406 C 693.277344 162.171875 693.679688 161.9375 694.097656 161.738281 C 694.519531 161.539062 694.957031 161.378906 695.40625 161.253906 C 695.855469 161.132812 696.3125 161.050781 696.777344 161.007812 C 697.242188 160.96875 697.707031 160.96875 698.171875 161.007812 C 698.636719 161.050781 699.09375 161.132812 699.542969 161.253906 C 699.992188 161.375 700.429688 161.539062 700.851562 161.738281 C 701.273438 161.9375 701.671875 162.171875 702.054688 162.441406 C 702.433594 162.710938 702.785156 163.015625 703.113281 163.347656 C 703.441406 163.679688 703.734375 164.039062 703.996094 164.425781 C 704.257812 164.8125 704.488281 165.214844 704.675781 165.640625 L 713.308594 197.847656 C 713.5625 198.867188 713.621094 199.894531 713.484375 200.933594 C 713.347656 201.976562 713.023438 202.953125 712.511719 203.871094 C 711.988281 204.765625 711.3125 205.527344 710.488281 206.15625 C 709.660156 206.789062 708.746094 207.238281 707.742188 207.503906 L 675.71875 216.136719 C 675.050781 216.316406 674.367188 216.410156 673.675781 216.421875 Z M 673.675781 216.421875"/><path fill="#F7F7F5" d="M 832.660156 308.214844 C 831.804688 308.214844 830.96875 308.085938 830.15625 307.816406 C 829.34375 307.546875 828.59375 307.15625 827.90625 306.644531 C 827.222656 306.132812 826.632812 305.523438 826.144531 304.820312 C 825.65625 304.117188 825.292969 303.355469 825.050781 302.53125 L 816.421875 270.328125 C 816.292969 269.824219 816.214844 269.3125 816.1875 268.792969 C 816.160156 268.273438 816.179688 267.757812 816.253906 267.242188 C 816.328125 266.730469 816.449219 266.226562 816.621094 265.734375 C 816.792969 265.246094 817.007812 264.777344 817.273438 264.328125 C 817.535156 263.878906 817.839844 263.460938 818.183594 263.074219 C 818.53125 262.6875 818.910156 262.335938 819.324219 262.023438 C 819.738281 261.707031 820.179688 261.4375 820.644531 261.210938 C 821.113281 260.984375 821.597656 260.804688 822.101562 260.671875 L 854.292969 252.035156 C 854.804688 251.867188 855.328125 251.75 855.863281 251.6875 C 856.394531 251.621094 856.929688 251.613281 857.46875 251.660156 C 858.003906 251.703125 858.527344 251.804688 859.042969 251.957031 C 859.5625 252.113281 860.054688 252.316406 860.53125 252.570312 C 861.003906 252.824219 861.445312 253.125 861.859375 253.472656 C 862.273438 253.816406 862.644531 254.199219 862.980469 254.621094 C 863.3125 255.042969 863.601562 255.496094 863.84375 255.976562 C 864.085938 256.457031 864.277344 256.957031 864.417969 257.476562 C 864.554688 257.996094 864.640625 258.527344 864.671875 259.0625 C 864.703125 259.601562 864.679688 260.136719 864.601562 260.667969 C 864.527344 261.199219 864.394531 261.71875 864.210938 262.226562 C 864.027344 262.730469 863.792969 263.214844 863.511719 263.671875 C 863.226562 264.128906 862.902344 264.554688 862.53125 264.945312 C 862.164062 265.335938 861.757812 265.6875 861.316406 265.996094 C 860.875 266.304688 860.410156 266.566406 859.914062 266.777344 C 859.421875 266.992188 858.910156 267.152344 858.382812 267.257812 L 833.683594 273.734375 L 840.269531 298.328125 C 840.402344 298.832031 840.484375 299.34375 840.515625 299.863281 C 840.546875 300.382812 840.527344 300.902344 840.453125 301.417969 C 840.382812 301.933594 840.261719 302.4375 840.089844 302.929688 C 839.921875 303.421875 839.703125 303.890625 839.4375 304.339844 C 839.175781 304.789062 838.871094 305.207031 838.523438 305.59375 C 838.175781 305.984375 837.796875 306.335938 837.378906 306.648438 C 836.964844 306.960938 836.519531 307.230469 836.050781 307.453125 C 835.582031 307.679688 835.09375 307.855469 834.589844 307.984375 C 833.957031 308.136719 833.3125 308.210938 832.660156 308.214844 Z M 832.660156 308.214844"/><path fill="#F7F7F5" d="M 803.019531 291.117188 C 802.164062 291.125 801.328125 290.996094 800.511719 290.730469 C 799.699219 290.460938 798.945312 290.074219 798.257812 289.558594 C 797.570312 289.046875 796.984375 288.4375 796.496094 287.730469 C 796.011719 287.027344 795.648438 286.261719 795.414062 285.4375 L 786.78125 253.230469 C 786.648438 252.726562 786.566406 252.214844 786.535156 251.695312 C 786.507812 251.175781 786.527344 250.65625 786.597656 250.140625 C 786.667969 249.625 786.789062 249.121094 786.960938 248.628906 C 787.132812 248.136719 787.347656 247.667969 787.613281 247.21875 C 787.875 246.769531 788.183594 246.351562 788.527344 245.964844 C 788.875 245.574219 789.257812 245.226562 789.671875 244.914062 C 790.089844 244.597656 790.53125 244.332031 791 244.105469 C 791.46875 243.878906 791.957031 243.703125 792.460938 243.574219 L 824.65625 234.941406 C 825.144531 234.839844 825.636719 234.785156 826.132812 234.777344 C 826.632812 234.773438 827.128906 234.8125 827.617188 234.898438 C 828.109375 234.984375 828.585938 235.117188 829.054688 235.296875 C 829.519531 235.472656 829.964844 235.691406 830.386719 235.953125 C 830.8125 236.214844 831.207031 236.515625 831.574219 236.851562 C 831.941406 237.1875 832.273438 237.558594 832.574219 237.957031 C 832.871094 238.355469 833.128906 238.78125 833.34375 239.230469 C 833.5625 239.679688 833.738281 240.144531 833.867188 240.625 C 833.996094 241.105469 834.078125 241.597656 834.113281 242.09375 C 834.152344 242.589844 834.140625 243.085938 834.082031 243.582031 C 834.027344 244.078125 833.921875 244.5625 833.773438 245.039062 C 833.625 245.515625 833.433594 245.972656 833.195312 246.410156 C 832.960938 246.847656 832.683594 247.261719 832.371094 247.648438 C 832.058594 248.035156 831.710938 248.390625 831.328125 248.710938 C 830.945312 249.035156 830.539062 249.316406 830.105469 249.558594 C 829.667969 249.804688 829.214844 250.003906 828.742188 250.164062 L 804.101562 256.75 L 810.6875 281.347656 C 810.820312 281.851562 810.902344 282.359375 810.933594 282.882812 C 810.964844 283.402344 810.941406 283.917969 810.871094 284.433594 C 810.800781 284.949219 810.679688 285.453125 810.507812 285.945312 C 810.335938 286.4375 810.121094 286.90625 809.855469 287.355469 C 809.59375 287.804688 809.289062 288.222656 808.941406 288.613281 C 808.59375 289 808.210938 289.351562 807.796875 289.664062 C 807.378906 289.976562 806.9375 290.246094 806.46875 290.472656 C 806 290.695312 805.511719 290.875 805.007812 291.003906 C 804.351562 291.113281 803.6875 291.148438 803.019531 291.117188 Z M 803.019531 291.117188"/><path fill="#F7F7F5" d="M 641.195312 298.839844 C 640.621094 298.847656 640.050781 298.808594 639.480469 298.71875 C 638.914062 298.632812 638.355469 298.496094 637.808594 298.316406 C 637.261719 298.136719 636.734375 297.914062 636.222656 297.648438 C 635.714844 297.378906 635.230469 297.074219 634.773438 296.726562 C 634.3125 296.378906 633.886719 295.996094 633.488281 295.578125 C 633.09375 295.160156 632.734375 294.714844 632.414062 294.238281 C 632.09375 293.757812 631.8125 293.257812 631.574219 292.734375 C 631.332031 292.210938 631.136719 291.671875 630.988281 291.117188 C 630.839844 290.5625 630.734375 290 630.675781 289.425781 C 630.621094 288.851562 630.609375 288.28125 630.648438 287.707031 C 630.6875 287.132812 630.769531 286.5625 630.902344 286.003906 C 631.035156 285.441406 631.210938 284.898438 631.429688 284.367188 C 631.652344 283.835938 631.917969 283.324219 632.222656 282.839844 C 632.527344 282.351562 632.871094 281.890625 633.253906 281.460938 C 633.632812 281.03125 634.046875 280.632812 634.496094 280.269531 C 634.941406 279.910156 635.414062 279.585938 635.914062 279.300781 L 853.785156 153.429688 C 854.378906 153.121094 854.996094 152.871094 855.636719 152.679688 C 856.28125 152.488281 856.933594 152.363281 857.601562 152.296875 C 858.269531 152.230469 858.933594 152.230469 859.601562 152.292969 C 860.269531 152.351562 860.925781 152.476562 861.566406 152.664062 C 862.210938 152.851562 862.832031 153.101562 863.425781 153.40625 C 864.023438 153.710938 864.582031 154.074219 865.109375 154.484375 C 865.636719 154.898438 866.121094 155.359375 866.558594 155.867188 C 867 156.371094 867.386719 156.914062 867.722656 157.496094 C 868.058594 158.074219 868.335938 158.683594 868.554688 159.316406 C 868.773438 159.949219 868.929688 160.597656 869.027344 161.261719 C 869.121094 161.921875 869.152344 162.589844 869.121094 163.257812 C 869.085938 163.929688 868.992188 164.589844 868.835938 165.238281 C 868.675781 165.890625 868.457031 166.519531 868.179688 167.128906 C 867.898438 167.738281 867.566406 168.316406 867.175781 168.863281 C 866.785156 169.40625 866.347656 169.910156 865.863281 170.371094 C 865.378906 170.835938 864.851562 171.246094 864.289062 171.605469 L 646.421875 297.476562 C 644.796875 298.378906 643.054688 298.835938 641.195312 298.839844 Z M 641.195312 298.839844"/><path fill="#F7F7F5" d="M 667.597656 308.214844 C 666.917969 308.296875 666.238281 308.296875 665.554688 308.214844 C 665.050781 308.085938 664.566406 307.914062 664.097656 307.691406 C 663.628906 307.46875 663.1875 307.203125 662.769531 306.890625 C 662.355469 306.582031 661.972656 306.234375 661.628906 305.847656 C 661.28125 305.460938 660.976562 305.046875 660.710938 304.601562 C 660.449219 304.152344 660.230469 303.683594 660.058594 303.195312 C 659.886719 302.707031 659.765625 302.203125 659.695312 301.691406 C 659.621094 301.175781 659.601562 300.660156 659.632812 300.144531 C 659.664062 299.625 659.746094 299.117188 659.878906 298.613281 L 666.464844 273.960938 L 642.21875 267.089844 C 641.722656 266.957031 641.242188 266.777344 640.777344 266.550781 C 640.316406 266.324219 639.878906 266.054688 639.472656 265.738281 C 639.0625 265.425781 638.6875 265.078125 638.347656 264.691406 C 638.007812 264.304688 637.707031 263.886719 637.449219 263.441406 C 637.191406 262.996094 636.976562 262.53125 636.8125 262.042969 C 636.644531 261.554688 636.527344 261.054688 636.460938 260.546875 C 636.390625 260.035156 636.375 259.523438 636.40625 259.007812 C 636.4375 258.492188 636.523438 257.988281 636.652344 257.488281 C 636.785156 256.992188 636.964844 256.511719 637.191406 256.050781 C 637.417969 255.585938 637.691406 255.152344 638.003906 254.742188 C 638.316406 254.332031 638.664062 253.957031 639.050781 253.617188 C 639.4375 253.277344 639.855469 252.976562 640.300781 252.71875 C 640.746094 252.460938 641.210938 252.246094 641.699219 252.082031 C 642.1875 251.914062 642.683594 251.796875 643.195312 251.730469 C 643.707031 251.660156 644.21875 251.644531 644.730469 251.675781 C 645.246094 251.707031 645.753906 251.789062 646.25 251.921875 L 678.445312 260.558594 C 678.949219 260.679688 679.4375 260.851562 679.910156 261.070312 C 680.378906 261.289062 680.824219 261.554688 681.242188 261.863281 C 681.660156 262.175781 682.042969 262.523438 682.390625 262.90625 C 682.738281 263.292969 683.042969 263.710938 683.308594 264.15625 C 683.574219 264.605469 683.792969 265.074219 683.960938 265.566406 C 684.132812 266.054688 684.253906 266.558594 684.324219 267.074219 C 684.394531 267.589844 684.410156 268.105469 684.378906 268.625 C 684.34375 269.144531 684.257812 269.65625 684.121094 270.15625 L 675.152344 302.363281 C 674.933594 303.199219 674.585938 303.976562 674.109375 304.699219 C 673.632812 305.417969 673.050781 306.042969 672.371094 306.570312 C 671.6875 307.101562 670.9375 307.507812 670.121094 307.785156 C 669.304688 308.066406 668.464844 308.210938 667.597656 308.214844 Z M 667.597656 308.214844"/><path fill="#F7F7F5" d="M 697.238281 291.058594 C 696.558594 291.171875 695.875 291.171875 695.195312 291.058594 C 694.691406 290.933594 694.207031 290.757812 693.738281 290.535156 C 693.269531 290.316406 692.828125 290.046875 692.410156 289.738281 C 691.996094 289.429688 691.613281 289.082031 691.265625 288.695312 C 690.921875 288.308594 690.613281 287.894531 690.351562 287.445312 C 690.085938 287 689.871094 286.53125 689.699219 286.042969 C 689.527344 285.550781 689.40625 285.050781 689.332031 284.535156 C 689.261719 284.023438 689.242188 283.507812 689.273438 282.988281 C 689.304688 282.472656 689.386719 281.960938 689.515625 281.460938 L 696.101562 256.863281 L 671.515625 250.277344 C 670.992188 250.167969 670.480469 250.007812 669.984375 249.792969 C 669.492188 249.582031 669.023438 249.320312 668.582031 249.011719 C 668.140625 248.703125 667.738281 248.355469 667.367188 247.960938 C 666.996094 247.570312 666.671875 247.144531 666.390625 246.6875 C 666.105469 246.230469 665.875 245.746094 665.6875 245.242188 C 665.503906 244.734375 665.375 244.21875 665.296875 243.683594 C 665.21875 243.152344 665.195312 242.617188 665.226562 242.078125 C 665.257812 241.542969 665.34375 241.011719 665.484375 240.492188 C 665.625 239.972656 665.8125 239.472656 666.054688 238.992188 C 666.296875 238.511719 666.585938 238.058594 666.921875 237.636719 C 667.253906 237.214844 667.628906 236.832031 668.039062 236.488281 C 668.453125 236.140625 668.894531 235.84375 669.371094 235.585938 C 669.84375 235.332031 670.339844 235.128906 670.855469 234.976562 C 671.371094 234.820312 671.898438 234.722656 672.433594 234.675781 C 672.96875 234.628906 673.503906 234.636719 674.039062 234.703125 C 674.574219 234.765625 675.09375 234.882812 675.605469 235.054688 L 707.800781 243.6875 C 708.804688 243.957031 709.71875 244.40625 710.542969 245.035156 C 711.371094 245.664062 712.042969 246.425781 712.570312 247.324219 C 713.082031 248.238281 713.40625 249.214844 713.542969 250.257812 C 713.679688 251.296875 713.621094 252.324219 713.363281 253.34375 L 704.675781 285.265625 C 704.449219 286.082031 704.097656 286.84375 703.621094 287.546875 C 703.148438 288.25 702.578125 288.863281 701.910156 289.382812 C 701.238281 289.90625 700.507812 290.308594 699.707031 290.59375 C 698.910156 290.882812 698.085938 291.035156 697.238281 291.058594 Z M 697.238281 291.058594"/><path fill="#F7F7F5" d="M 856.226562 199.269531 C 855.53125 199.257812 854.851562 199.164062 854.179688 198.984375 L 821.984375 190.351562 C 821.484375 190.21875 821 190.039062 820.53125 189.8125 C 820.066406 189.585938 819.625 189.3125 819.210938 189 C 818.796875 188.6875 818.417969 188.335938 818.070312 187.945312 C 817.726562 187.558594 817.421875 187.140625 817.160156 186.691406 C 816.894531 186.246094 816.679688 185.777344 816.507812 185.285156 C 816.335938 184.792969 816.214844 184.292969 816.140625 183.777344 C 816.066406 183.261719 816.042969 182.746094 816.074219 182.226562 C 816.101562 181.710938 816.179688 181.199219 816.308594 180.695312 L 824.9375 148.488281 C 825.097656 148.015625 825.296875 147.5625 825.542969 147.125 C 825.785156 146.691406 826.066406 146.285156 826.386719 145.902344 C 826.710938 145.519531 827.0625 145.171875 827.449219 144.859375 C 827.835938 144.546875 828.25 144.269531 828.6875 144.035156 C 829.128906 143.796875 829.585938 143.605469 830.0625 143.457031 C 830.535156 143.308594 831.023438 143.203125 831.515625 143.144531 C 832.011719 143.089844 832.507812 143.078125 833.003906 143.117188 C 833.503906 143.152344 833.992188 143.234375 834.472656 143.363281 C 834.953125 143.492188 835.417969 143.667969 835.867188 143.882812 C 836.316406 144.101562 836.738281 144.359375 837.140625 144.65625 C 837.539062 144.957031 837.90625 145.289062 838.242188 145.65625 C 838.582031 146.023438 838.878906 146.417969 839.140625 146.84375 C 839.402344 147.265625 839.621094 147.710938 839.800781 148.179688 C 839.976562 148.644531 840.109375 149.121094 840.195312 149.613281 C 840.285156 150.105469 840.324219 150.597656 840.316406 151.097656 C 840.308594 151.597656 840.257812 152.089844 840.15625 152.578125 L 833.683594 177.171875 L 858.269531 183.761719 C 858.722656 183.886719 859.164062 184.050781 859.589844 184.257812 C 860.015625 184.460938 860.421875 184.703125 860.804688 184.980469 C 861.1875 185.257812 861.539062 185.566406 861.867188 185.910156 C 862.195312 186.25 862.488281 186.617188 862.75 187.011719 C 863.011719 187.40625 863.234375 187.820312 863.421875 188.253906 C 863.609375 188.6875 863.753906 189.136719 863.863281 189.59375 C 863.96875 190.054688 864.03125 190.523438 864.054688 190.996094 C 864.078125 191.464844 864.058594 191.9375 863.996094 192.40625 C 863.933594 192.875 863.832031 193.332031 863.6875 193.785156 C 863.542969 194.234375 863.359375 194.667969 863.136719 195.085938 C 862.914062 195.5 862.660156 195.894531 862.367188 196.265625 C 862.074219 196.636719 861.75 196.980469 861.394531 197.292969 C 861.039062 197.605469 860.660156 197.882812 860.257812 198.128906 C 859.851562 198.375 859.429688 198.582031 858.988281 198.75 C 858.546875 198.917969 858.09375 199.046875 857.628906 199.132812 C 857.164062 199.21875 856.699219 199.265625 856.226562 199.269531 Z M 856.226562 199.269531"/><path fill="#F7F7F5" d="M 826.585938 216.367188 C 825.902344 216.449219 825.222656 216.449219 824.542969 216.367188 L 792.347656 207.730469 C 791.84375 207.601562 791.355469 207.425781 790.886719 207.199219 C 790.417969 206.976562 789.976562 206.707031 789.558594 206.394531 C 789.144531 206.082031 788.761719 205.730469 788.414062 205.339844 C 788.066406 204.953125 787.761719 204.535156 787.5 204.085938 C 787.234375 203.636719 787.019531 203.167969 786.847656 202.675781 C 786.675781 202.183594 786.554688 201.679688 786.484375 201.164062 C 786.414062 200.648438 786.390625 200.128906 786.421875 199.609375 C 786.453125 199.089844 786.535156 198.578125 786.667969 198.074219 L 795.527344 165.640625 C 795.660156 165.144531 795.84375 164.664062 796.070312 164.203125 C 796.300781 163.738281 796.570312 163.304688 796.886719 162.894531 C 797.199219 162.488281 797.550781 162.113281 797.941406 161.773438 C 798.328125 161.433594 798.746094 161.136719 799.191406 160.878906 C 799.640625 160.621094 800.105469 160.410156 800.59375 160.246094 C 801.082031 160.082031 801.582031 159.964844 802.09375 159.898438 C 802.605469 159.832031 803.117188 159.816406 803.632812 159.851562 C 804.148438 159.886719 804.652344 159.96875 805.152344 160.105469 C 805.648438 160.238281 806.128906 160.421875 806.589844 160.648438 C 807.050781 160.878906 807.488281 161.148438 807.894531 161.464844 C 808.304688 161.777344 808.679688 162.128906 809.015625 162.519531 C 809.355469 162.90625 809.65625 163.324219 809.910156 163.769531 C 810.167969 164.21875 810.378906 164.6875 810.546875 165.175781 C 810.710938 165.664062 810.824219 166.164062 810.890625 166.675781 C 810.957031 167.1875 810.972656 167.699219 810.941406 168.214844 C 810.90625 168.726562 810.820312 169.234375 810.6875 169.730469 L 804.101562 194.328125 L 828.742188 200.914062 C 829.207031 201.03125 829.660156 201.183594 830.09375 201.382812 C 830.53125 201.578125 830.945312 201.8125 831.339844 202.085938 C 831.734375 202.359375 832.097656 202.664062 832.4375 203.003906 C 832.773438 203.34375 833.078125 203.710938 833.347656 204.105469 C 833.617188 204.503906 833.851562 204.917969 834.042969 205.355469 C 834.238281 205.792969 834.390625 206.246094 834.5 206.710938 C 834.613281 207.179688 834.679688 207.648438 834.703125 208.128906 C 834.726562 208.605469 834.710938 209.082031 834.648438 209.558594 C 834.582031 210.03125 834.476562 210.496094 834.332031 210.953125 C 834.183594 211.410156 833.992188 211.847656 833.765625 212.265625 C 833.539062 212.6875 833.273438 213.085938 832.972656 213.457031 C 832.671875 213.828125 832.339844 214.171875 831.976562 214.484375 C 831.613281 214.792969 831.222656 215.070312 830.808594 215.3125 C 830.394531 215.550781 829.960938 215.75 829.511719 215.914062 C 829.058594 216.074219 828.597656 216.191406 828.125 216.269531 C 827.652344 216.34375 827.175781 216.375 826.699219 216.367188 Z M 826.585938 216.367188"/></svg>