<svg xmlns="http://www.w3.org/2000/svg" width="1500" viewBox="0 0 1500 450" height="450" version="1.0"><defs><clipPath id="a"><path d="M 644 113.230469 L 856.066406 113.230469 L 856.066406 336.730469 L 644 336.730469 Z M 644 113.230469"/></clipPath></defs><path fill="#FED449" d="M 750.128906 332.460938 L 735.757812 315.050781 C 734.960938 314.089844 734.101562 313.1875 733.179688 312.347656 C 732.257812 311.507812 731.28125 310.738281 730.25 310.035156 C 729.21875 309.332031 728.144531 308.707031 727.023438 308.160156 C 725.902344 307.609375 724.75 307.140625 723.5625 306.757812 C 722.378906 306.371094 721.171875 306.070312 719.941406 305.855469 C 718.710938 305.640625 717.476562 305.515625 716.226562 305.476562 C 714.980469 305.4375 713.738281 305.488281 712.5 305.625 C 711.257812 305.761719 710.035156 305.988281 708.828125 306.296875 L 686.960938 311.933594 L 685.574219 289.40625 C 685.496094 288.160156 685.332031 286.925781 685.082031 285.699219 C 684.828125 284.476562 684.492188 283.277344 684.070312 282.101562 C 683.648438 280.925781 683.144531 279.785156 682.5625 278.679688 C 681.976562 277.574219 681.316406 276.515625 680.582031 275.507812 C 679.847656 274.496094 679.046875 273.542969 678.179688 272.644531 C 677.308594 271.746094 676.378906 270.917969 675.390625 270.152344 C 674.40625 269.386719 673.367188 268.695312 672.28125 268.078125 C 671.195312 267.457031 670.074219 266.921875 668.910156 266.460938 L 647.917969 258.199219 L 660.027344 239.164062 C 660.699219 238.109375 661.292969 237.011719 661.808594 235.875 C 662.324219 234.734375 662.757812 233.566406 663.105469 232.367188 C 663.457031 231.164062 663.71875 229.945312 663.894531 228.710938 C 664.074219 227.472656 664.160156 226.230469 664.160156 224.980469 C 664.160156 223.730469 664.074219 222.484375 663.894531 221.246094 C 663.71875 220.011719 663.457031 218.792969 663.105469 217.59375 C 662.757812 216.390625 662.324219 215.222656 661.808594 214.085938 C 661.292969 212.945312 660.699219 211.847656 660.027344 210.796875 L 647.917969 191.757812 L 668.910156 183.496094 C 670.074219 183.035156 671.195312 182.5 672.28125 181.882812 C 673.367188 181.265625 674.40625 180.574219 675.390625 179.808594 C 676.378906 179.042969 677.308594 178.210938 678.179688 177.316406 C 679.046875 176.417969 679.851562 175.464844 680.585938 174.453125 C 681.320312 173.441406 681.976562 172.386719 682.5625 171.28125 C 683.148438 170.175781 683.648438 169.035156 684.074219 167.859375 C 684.496094 166.683594 684.832031 165.484375 685.085938 164.261719 C 685.335938 163.035156 685.5 161.800781 685.578125 160.554688 L 686.964844 138.03125 L 708.832031 143.664062 C 710.039062 143.972656 711.261719 144.199219 712.503906 144.335938 C 713.742188 144.472656 714.984375 144.523438 716.230469 144.484375 C 717.476562 144.445312 718.714844 144.320312 719.945312 144.105469 C 721.171875 143.890625 722.382812 143.59375 723.566406 143.207031 C 724.753906 142.820312 725.90625 142.355469 727.027344 141.804688 C 728.148438 141.257812 729.222656 140.628906 730.253906 139.929688 C 731.285156 139.226562 732.261719 138.457031 733.183594 137.617188 C 734.105469 136.777344 734.964844 135.875 735.757812 134.914062 L 750.128906 117.496094 L 764.503906 134.90625 C 765.300781 135.867188 766.160156 136.769531 767.082031 137.609375 C 768.003906 138.449219 768.980469 139.222656 770.011719 139.921875 C 771.042969 140.625 772.117188 141.25 773.238281 141.800781 C 774.359375 142.347656 775.511719 142.816406 776.699219 143.203125 C 777.882812 143.585938 779.089844 143.886719 780.320312 144.101562 C 781.550781 144.316406 782.785156 144.441406 784.035156 144.480469 C 785.28125 144.519531 786.523438 144.46875 787.761719 144.332031 C 789.003906 144.195312 790.226562 143.96875 791.433594 143.660156 L 813.300781 138.023438 L 814.6875 160.550781 C 814.765625 161.796875 814.929688 163.035156 815.179688 164.257812 C 815.433594 165.480469 815.769531 166.679688 816.191406 167.855469 C 816.613281 169.03125 817.117188 170.171875 817.699219 171.277344 C 818.285156 172.382812 818.945312 173.441406 819.679688 174.449219 C 820.414062 175.460938 821.214844 176.417969 822.082031 177.3125 C 822.953125 178.210938 823.882812 179.042969 824.871094 179.804688 C 825.855469 180.570312 826.894531 181.261719 827.980469 181.878906 C 829.066406 182.5 830.1875 183.035156 831.351562 183.496094 L 852.34375 191.765625 L 840.234375 210.796875 C 839.5625 211.847656 838.96875 212.945312 838.453125 214.085938 C 837.9375 215.222656 837.503906 216.390625 837.15625 217.589844 C 836.804688 218.792969 836.542969 220.011719 836.367188 221.246094 C 836.1875 222.484375 836.101562 223.730469 836.101562 224.980469 C 836.101562 226.230469 836.1875 227.472656 836.367188 228.710938 C 836.542969 229.945312 836.804688 231.164062 837.15625 232.367188 C 837.503906 233.566406 837.9375 234.734375 838.453125 235.875 C 838.96875 237.011719 839.5625 238.109375 840.234375 239.164062 L 852.359375 258.199219 L 831.351562 266.460938 C 830.1875 266.921875 829.066406 267.457031 827.980469 268.074219 C 826.894531 268.695312 825.855469 269.386719 824.867188 270.148438 C 823.882812 270.914062 822.953125 271.746094 822.082031 272.644531 C 821.214844 273.539062 820.410156 274.492188 819.675781 275.503906 C 818.941406 276.515625 818.28125 277.574219 817.699219 278.675781 C 817.113281 279.78125 816.613281 280.921875 816.1875 282.097656 C 815.765625 283.273438 815.429688 284.472656 815.175781 285.695312 C 814.925781 286.921875 814.761719 288.15625 814.683594 289.402344 L 813.296875 311.925781 L 791.429688 306.292969 C 790.222656 305.984375 789 305.757812 787.757812 305.621094 C 786.519531 305.484375 785.277344 305.433594 784.03125 305.472656 C 782.785156 305.511719 781.546875 305.636719 780.316406 305.851562 C 779.089844 306.066406 777.878906 306.367188 776.695312 306.75 C 775.507812 307.136719 774.355469 307.601562 773.234375 308.152344 C 772.113281 308.703125 771.039062 309.328125 770.007812 310.027344 C 768.976562 310.730469 768 311.5 767.078125 312.339844 C 766.15625 313.179688 765.296875 314.082031 764.503906 315.042969 Z M 750.128906 332.460938"/><path fill="#FCE666" d="M 814.21875 224.980469 C 814.21875 226.027344 814.195312 227.078125 814.144531 228.125 C 814.09375 229.171875 814.015625 230.21875 813.910156 231.261719 C 813.808594 232.308594 813.679688 233.347656 813.527344 234.386719 C 813.371094 235.421875 813.195312 236.457031 812.988281 237.484375 C 812.785156 238.515625 812.554688 239.539062 812.300781 240.554688 C 812.042969 241.574219 811.765625 242.585938 811.460938 243.589844 C 811.15625 244.59375 810.828125 245.589844 810.472656 246.578125 C 810.121094 247.566406 809.742188 248.542969 809.34375 249.511719 C 808.941406 250.484375 808.515625 251.441406 808.066406 252.390625 C 807.617188 253.339844 807.148438 254.273438 806.652344 255.199219 C 806.160156 256.125 805.640625 257.039062 805.101562 257.9375 C 804.5625 258.839844 804.003906 259.726562 803.417969 260.597656 C 802.835938 261.46875 802.234375 262.328125 801.609375 263.167969 C 800.984375 264.011719 800.339844 264.839844 799.671875 265.652344 C 799.007812 266.460938 798.324219 267.257812 797.617188 268.035156 C 796.914062 268.8125 796.191406 269.570312 795.449219 270.3125 C 794.707031 271.054688 793.949219 271.777344 793.171875 272.480469 C 792.394531 273.1875 791.601562 273.871094 790.789062 274.539062 C 789.976562 275.203125 789.152344 275.847656 788.308594 276.472656 C 787.464844 277.097656 786.609375 277.703125 785.738281 278.285156 C 784.863281 278.867188 783.980469 279.429688 783.078125 279.96875 C 782.179688 280.507812 781.265625 281.027344 780.34375 281.519531 C 779.417969 282.015625 778.480469 282.484375 777.53125 282.933594 C 776.585938 283.382812 775.625 283.808594 774.65625 284.210938 C 773.6875 284.613281 772.710938 284.988281 771.722656 285.34375 C 770.734375 285.695312 769.738281 286.023438 768.734375 286.328125 C 767.730469 286.632812 766.722656 286.914062 765.703125 287.167969 C 764.6875 287.421875 763.664062 287.652344 762.632812 287.859375 C 761.605469 288.0625 760.570312 288.242188 759.535156 288.394531 C 758.496094 288.550781 757.457031 288.679688 756.414062 288.78125 C 755.367188 288.882812 754.324219 288.960938 753.277344 289.011719 C 752.226562 289.066406 751.179688 289.089844 750.128906 289.089844 C 749.082031 289.089844 748.035156 289.066406 746.984375 289.011719 C 745.9375 288.960938 744.894531 288.882812 743.847656 288.78125 C 742.804688 288.679688 741.765625 288.550781 740.726562 288.394531 C 739.6875 288.242188 738.65625 288.0625 737.628906 287.859375 C 736.597656 287.652344 735.574219 287.421875 734.558594 287.167969 C 733.539062 286.914062 732.53125 286.632812 731.527344 286.328125 C 730.523438 286.023438 729.527344 285.695312 728.539062 285.34375 C 727.550781 284.988281 726.574219 284.613281 725.605469 284.210938 C 724.636719 283.808594 723.675781 283.382812 722.730469 282.933594 C 721.78125 282.484375 720.84375 282.015625 719.917969 281.519531 C 718.992188 281.027344 718.082031 280.507812 717.183594 279.96875 C 716.28125 279.429688 715.398438 278.867188 714.523438 278.285156 C 713.652344 277.703125 712.796875 277.097656 711.953125 276.472656 C 711.109375 275.847656 710.285156 275.203125 709.472656 274.539062 C 708.660156 273.871094 707.867188 273.1875 707.089844 272.480469 C 706.3125 271.777344 705.554688 271.054688 704.8125 270.3125 C 704.070312 269.570312 703.347656 268.8125 702.644531 268.035156 C 701.9375 267.257812 701.253906 266.460938 700.589844 265.652344 C 699.921875 264.839844 699.277344 264.011719 698.652344 263.167969 C 698.027344 262.328125 697.425781 261.46875 696.84375 260.597656 C 696.257812 259.726562 695.699219 258.839844 695.160156 257.9375 C 694.621094 257.039062 694.101562 256.125 693.609375 255.199219 C 693.113281 254.273438 692.644531 253.339844 692.195312 252.390625 C 691.746094 251.441406 691.320312 250.484375 690.917969 249.511719 C 690.519531 248.542969 690.140625 247.566406 689.789062 246.578125 C 689.433594 245.589844 689.105469 244.59375 688.800781 243.589844 C 688.496094 242.585938 688.214844 241.574219 687.960938 240.554688 C 687.707031 239.539062 687.476562 238.515625 687.273438 237.484375 C 687.066406 236.457031 686.890625 235.421875 686.734375 234.386719 C 686.582031 233.347656 686.453125 232.308594 686.351562 231.261719 C 686.246094 230.21875 686.167969 229.171875 686.117188 228.125 C 686.066406 227.078125 686.042969 226.027344 686.042969 224.980469 C 686.042969 223.929688 686.066406 222.882812 686.117188 221.832031 C 686.167969 220.785156 686.246094 219.738281 686.351562 218.695312 C 686.453125 217.652344 686.582031 216.609375 686.734375 215.570312 C 686.890625 214.535156 687.066406 213.5 687.273438 212.472656 C 687.476562 211.441406 687.707031 210.417969 687.960938 209.402344 C 688.214844 208.382812 688.496094 207.371094 688.800781 206.367188 C 689.105469 205.363281 689.433594 204.367188 689.789062 203.378906 C 690.140625 202.390625 690.519531 201.414062 690.917969 200.445312 C 691.320312 199.476562 691.746094 198.515625 692.195312 197.566406 C 692.644531 196.617188 693.113281 195.683594 693.609375 194.757812 C 694.101562 193.832031 694.621094 192.917969 695.160156 192.019531 C 695.699219 191.117188 696.257812 190.234375 696.84375 189.359375 C 697.425781 188.488281 698.027344 187.628906 698.652344 186.789062 C 699.277344 185.945312 699.921875 185.117188 700.589844 184.308594 C 701.253906 183.496094 701.9375 182.703125 702.644531 181.925781 C 703.347656 181.148438 704.070312 180.386719 704.8125 179.644531 C 705.554688 178.902344 706.3125 178.179688 707.089844 177.476562 C 707.867188 176.769531 708.660156 176.085938 709.472656 175.421875 C 710.285156 174.753906 711.109375 174.109375 711.953125 173.484375 C 712.796875 172.859375 713.652344 172.253906 714.523438 171.671875 C 715.398438 171.089844 716.28125 170.527344 717.183594 169.988281 C 718.082031 169.449219 718.992188 168.933594 719.917969 168.4375 C 720.84375 167.941406 721.78125 167.472656 722.730469 167.023438 C 723.675781 166.574219 724.636719 166.148438 725.605469 165.746094 C 726.574219 165.347656 727.550781 164.96875 728.539062 164.613281 C 729.527344 164.261719 730.523438 163.933594 731.527344 163.628906 C 732.53125 163.324219 733.539062 163.042969 734.558594 162.789062 C 735.574219 162.535156 736.597656 162.304688 737.628906 162.097656 C 738.65625 161.894531 739.6875 161.714844 740.726562 161.5625 C 741.765625 161.40625 742.804688 161.277344 743.847656 161.175781 C 744.894531 161.074219 745.9375 160.996094 746.984375 160.945312 C 748.035156 160.894531 749.082031 160.867188 750.128906 160.867188 C 751.179688 160.867188 752.226562 160.894531 753.277344 160.945312 C 754.324219 160.996094 755.367188 161.074219 756.414062 161.175781 C 757.457031 161.277344 758.496094 161.40625 759.535156 161.5625 C 760.570312 161.714844 761.605469 161.894531 762.632812 162.097656 C 763.664062 162.304688 764.6875 162.535156 765.703125 162.789062 C 766.722656 163.042969 767.730469 163.324219 768.734375 163.628906 C 769.738281 163.933594 770.734375 164.261719 771.722656 164.613281 C 772.710938 164.96875 773.6875 165.347656 774.65625 165.746094 C 775.625 166.148438 776.585938 166.574219 777.53125 167.023438 C 778.480469 167.472656 779.417969 167.941406 780.34375 168.4375 C 781.265625 168.933594 782.179688 169.449219 783.078125 169.988281 C 783.980469 170.527344 784.863281 171.089844 785.738281 171.671875 C 786.609375 172.253906 787.464844 172.859375 788.308594 173.484375 C 789.152344 174.109375 789.976562 174.753906 790.789062 175.421875 C 791.601562 176.085938 792.394531 176.769531 793.171875 177.476562 C 793.949219 178.179688 794.707031 178.902344 795.449219 179.644531 C 796.191406 180.386719 796.914062 181.148438 797.617188 181.925781 C 798.324219 182.703125 799.007812 183.496094 799.671875 184.308594 C 800.339844 185.117188 800.984375 185.945312 801.609375 186.789062 C 802.234375 187.628906 802.835938 188.488281 803.417969 189.359375 C 804.003906 190.234375 804.5625 191.117188 805.101562 192.019531 C 805.640625 192.917969 806.160156 193.832031 806.652344 194.757812 C 807.148438 195.683594 807.617188 196.617188 808.066406 197.566406 C 808.515625 198.515625 808.941406 199.476562 809.34375 200.445312 C 809.742188 201.414062 810.121094 202.390625 810.472656 203.378906 C 810.828125 204.367188 811.15625 205.363281 811.460938 206.367188 C 811.765625 207.371094 812.042969 208.382812 812.300781 209.402344 C 812.554688 210.417969 812.785156 211.441406 812.988281 212.472656 C 813.195312 213.5 813.371094 214.535156 813.527344 215.570312 C 813.679688 216.609375 813.808594 217.652344 813.910156 218.695312 C 814.015625 219.738281 814.09375 220.785156 814.144531 221.832031 C 814.195312 222.882812 814.21875 223.929688 814.21875 224.980469 Z M 814.21875 224.980469"/><path fill="#FED449" d="M 750.128906 292.863281 C 751.242188 292.863281 752.351562 292.835938 753.460938 292.78125 C 754.570312 292.726562 755.675781 292.644531 756.78125 292.535156 C 757.886719 292.425781 758.988281 292.289062 760.085938 292.125 C 761.1875 291.964844 762.28125 291.773438 763.371094 291.558594 C 764.457031 291.339844 765.542969 291.097656 766.621094 290.828125 C 767.695312 290.558594 768.765625 290.261719 769.828125 289.9375 C 770.890625 289.617188 771.945312 289.265625 772.992188 288.894531 C 774.039062 288.519531 775.074219 288.121094 776.097656 287.695312 C 777.125 287.269531 778.140625 286.820312 779.144531 286.34375 C 780.148438 285.867188 781.140625 285.371094 782.121094 284.847656 C 783.097656 284.320312 784.066406 283.773438 785.019531 283.203125 C 785.96875 282.632812 786.90625 282.039062 787.832031 281.421875 C 788.753906 280.804688 789.664062 280.164062 790.554688 279.503906 C 791.445312 278.839844 792.320312 278.15625 793.179688 277.453125 C 794.039062 276.746094 794.878906 276.023438 795.703125 275.277344 C 796.527344 274.53125 797.328125 273.765625 798.113281 272.980469 C 798.898438 272.195312 799.664062 271.390625 800.410156 270.566406 C 801.15625 269.742188 801.882812 268.902344 802.585938 268.042969 C 803.292969 267.183594 803.976562 266.308594 804.636719 265.417969 C 805.296875 264.523438 805.9375 263.617188 806.554688 262.691406 C 807.171875 261.769531 807.765625 260.832031 808.335938 259.878906 C 808.90625 258.925781 809.453125 257.957031 809.976562 256.976562 C 810.5 256 811 255.007812 811.476562 254.003906 C 811.949219 253 812.398438 251.984375 812.824219 250.957031 C 813.25 249.929688 813.648438 248.894531 814.023438 247.847656 C 814.398438 246.800781 814.746094 245.746094 815.070312 244.683594 C 815.390625 243.621094 815.6875 242.550781 815.957031 241.472656 C 816.226562 240.394531 816.46875 239.3125 816.6875 238.222656 C 816.902344 237.132812 817.09375 236.039062 817.257812 234.9375 C 817.417969 233.839844 817.554688 232.738281 817.664062 231.632812 C 817.773438 230.527344 817.855469 229.417969 817.910156 228.308594 C 817.964844 227.199219 817.992188 226.089844 817.992188 224.980469 C 817.992188 223.867188 817.964844 222.757812 817.910156 221.648438 C 817.855469 220.539062 817.773438 219.429688 817.664062 218.324219 C 817.554688 217.21875 817.417969 216.117188 817.257812 215.019531 C 817.09375 213.917969 816.902344 212.824219 816.6875 211.734375 C 816.46875 210.644531 816.226562 209.5625 815.957031 208.484375 C 815.6875 207.40625 815.390625 206.335938 815.070312 205.273438 C 814.746094 204.210938 814.398438 203.15625 814.023438 202.109375 C 813.648438 201.0625 813.25 200.027344 812.824219 199 C 812.398438 197.976562 811.949219 196.960938 811.476562 195.957031 C 811 194.949219 810.5 193.957031 809.976562 192.980469 C 809.453125 192 808.90625 191.03125 808.335938 190.078125 C 807.765625 189.128906 807.171875 188.1875 806.554688 187.265625 C 805.9375 186.339844 805.296875 185.433594 804.636719 184.542969 C 803.976562 183.648438 803.292969 182.773438 802.585938 181.914062 C 801.882812 181.054688 801.15625 180.214844 800.410156 179.390625 C 799.664062 178.566406 798.898438 177.765625 798.113281 176.976562 C 797.328125 176.191406 796.527344 175.425781 795.703125 174.679688 C 794.878906 173.933594 794.039062 173.210938 793.179688 172.503906 C 792.320312 171.800781 791.445312 171.117188 790.554688 170.453125 C 789.664062 169.792969 788.753906 169.152344 787.832031 168.535156 C 786.90625 167.917969 785.96875 167.324219 785.019531 166.753906 C 784.066406 166.183594 783.097656 165.636719 782.121094 165.113281 C 781.140625 164.585938 780.148438 164.089844 779.144531 163.613281 C 778.140625 163.136719 777.125 162.6875 776.097656 162.261719 C 775.074219 161.839844 774.039062 161.4375 772.992188 161.0625 C 771.945312 160.691406 770.890625 160.339844 769.828125 160.019531 C 768.765625 159.695312 767.695312 159.398438 766.621094 159.128906 C 765.542969 158.859375 764.457031 158.617188 763.371094 158.398438 C 762.28125 158.183594 761.1875 157.992188 760.085938 157.832031 C 758.988281 157.667969 757.886719 157.53125 756.78125 157.421875 C 755.675781 157.3125 754.570312 157.230469 753.460938 157.179688 C 752.351562 157.125 751.242188 157.097656 750.128906 157.097656 C 749.019531 157.097656 747.910156 157.125 746.800781 157.179688 C 745.691406 157.230469 744.585938 157.3125 743.480469 157.421875 C 742.375 157.53125 741.273438 157.667969 740.171875 157.832031 C 739.074219 157.992188 737.980469 158.183594 736.890625 158.398438 C 735.804688 158.617188 734.71875 158.859375 733.640625 159.128906 C 732.566406 159.398438 731.496094 159.695312 730.433594 160.019531 C 729.371094 160.339844 728.316406 160.691406 727.269531 161.0625 C 726.222656 161.4375 725.1875 161.839844 724.160156 162.261719 C 723.136719 162.6875 722.121094 163.136719 721.117188 163.613281 C 720.113281 164.089844 719.121094 164.585938 718.140625 165.113281 C 717.164062 165.636719 716.195312 166.183594 715.242188 166.753906 C 714.292969 167.324219 713.351562 167.917969 712.429688 168.535156 C 711.507812 169.152344 710.597656 169.792969 709.707031 170.453125 C 708.816406 171.117188 707.941406 171.800781 707.082031 172.503906 C 706.222656 173.210938 705.382812 173.933594 704.558594 174.679688 C 703.734375 175.425781 702.933594 176.191406 702.148438 176.976562 C 701.363281 177.765625 700.597656 178.566406 699.851562 179.390625 C 699.105469 180.214844 698.378906 181.054688 697.675781 181.914062 C 696.96875 182.773438 696.285156 183.648438 695.625 184.542969 C 694.964844 185.433594 694.324219 186.339844 693.707031 187.265625 C 693.089844 188.1875 692.496094 189.128906 691.925781 190.078125 C 691.355469 191.03125 690.808594 192 690.285156 192.980469 C 689.761719 193.957031 689.261719 194.949219 688.785156 195.957031 C 688.3125 196.960938 687.863281 197.976562 687.4375 199 C 687.011719 200.027344 686.613281 201.0625 686.238281 202.109375 C 685.863281 203.15625 685.515625 204.210938 685.191406 205.273438 C 684.871094 206.335938 684.574219 207.40625 684.304688 208.484375 C 684.035156 209.5625 683.792969 210.644531 683.574219 211.734375 C 683.359375 212.824219 683.167969 213.917969 683.003906 215.019531 C 682.84375 216.117188 682.707031 217.21875 682.597656 218.324219 C 682.488281 219.429688 682.40625 220.539062 682.351562 221.648438 C 682.296875 222.757812 682.269531 223.867188 682.269531 224.980469 C 682.273438 226.089844 682.300781 227.199219 682.355469 228.308594 C 682.414062 229.417969 682.496094 230.523438 682.605469 231.628906 C 682.714844 232.734375 682.851562 233.835938 683.015625 234.933594 C 683.179688 236.035156 683.371094 237.128906 683.589844 238.214844 C 683.804688 239.304688 684.050781 240.390625 684.320312 241.464844 C 684.589844 242.542969 684.886719 243.613281 685.210938 244.675781 C 685.535156 245.738281 685.882812 246.792969 686.257812 247.835938 C 686.632812 248.882812 687.03125 249.917969 687.457031 250.945312 C 687.882812 251.96875 688.332031 252.984375 688.808594 253.988281 C 689.285156 254.992188 689.785156 255.984375 690.308594 256.960938 C 690.832031 257.941406 691.378906 258.90625 691.949219 259.859375 C 692.519531 260.8125 693.113281 261.75 693.730469 262.671875 C 694.347656 263.597656 694.988281 264.503906 695.648438 265.394531 C 696.3125 266.289062 696.996094 267.164062 697.699219 268.023438 C 698.402344 268.878906 699.128906 269.722656 699.875 270.542969 C 700.621094 271.367188 701.386719 272.171875 702.167969 272.957031 C 702.953125 273.742188 703.757812 274.507812 704.582031 275.253906 C 705.402344 276 706.246094 276.722656 707.101562 277.429688 C 707.960938 278.132812 708.835938 278.816406 709.726562 279.476562 C 710.617188 280.140625 711.527344 280.78125 712.449219 281.398438 C 713.371094 282.015625 714.308594 282.609375 715.261719 283.179688 C 716.214844 283.75 717.179688 284.296875 718.15625 284.824219 C 719.136719 285.347656 720.128906 285.847656 721.132812 286.320312 C 722.132812 286.796875 723.148438 287.246094 724.175781 287.671875 C 725.199219 288.097656 726.234375 288.5 727.28125 288.875 C 728.324219 289.25 729.378906 289.597656 730.441406 289.921875 C 731.503906 290.242188 732.574219 290.539062 733.648438 290.8125 C 734.726562 291.082031 735.808594 291.328125 736.898438 291.542969 C 737.984375 291.761719 739.078125 291.953125 740.175781 292.117188 C 741.277344 292.28125 742.378906 292.417969 743.480469 292.527344 C 744.585938 292.636719 745.695312 292.71875 746.800781 292.777344 C 747.910156 292.832031 749.019531 292.859375 750.128906 292.863281 Z M 750.128906 164.636719 C 752.105469 164.636719 754.078125 164.734375 756.042969 164.929688 C 758.007812 165.121094 759.960938 165.414062 761.898438 165.796875 C 763.835938 166.183594 765.75 166.664062 767.640625 167.238281 C 769.53125 167.808594 771.390625 168.476562 773.214844 169.230469 C 775.039062 169.988281 776.824219 170.832031 778.566406 171.761719 C 780.308594 172.695312 782 173.710938 783.644531 174.808594 C 785.285156 175.90625 786.871094 177.082031 788.398438 178.335938 C 789.925781 179.589844 791.386719 180.914062 792.785156 182.3125 C 794.179688 183.710938 795.503906 185.171875 796.757812 186.699219 C 798.011719 188.226562 799.1875 189.8125 800.285156 191.457031 C 801.382812 193.097656 802.398438 194.792969 803.328125 196.535156 C 804.257812 198.277344 805.101562 200.0625 805.859375 201.886719 C 806.613281 203.714844 807.28125 205.570312 807.851562 207.464844 C 808.425781 209.355469 808.90625 211.269531 809.292969 213.207031 C 809.675781 215.144531 809.964844 217.097656 810.160156 219.0625 C 810.355469 221.03125 810.449219 223.003906 810.449219 224.980469 C 810.449219 226.953125 810.355469 228.925781 810.160156 230.894531 C 809.964844 232.859375 809.675781 234.8125 809.292969 236.75 C 808.90625 238.6875 808.425781 240.601562 807.851562 242.496094 C 807.28125 244.386719 806.613281 246.246094 805.859375 248.070312 C 805.101562 249.894531 804.257812 251.679688 803.328125 253.421875 C 802.398438 255.164062 801.382812 256.859375 800.285156 258.503906 C 799.1875 260.144531 798.011719 261.730469 796.757812 263.257812 C 795.503906 264.785156 794.179688 266.25 792.785156 267.644531 C 791.386719 269.042969 789.925781 270.367188 788.398438 271.621094 C 786.871094 272.875 785.285156 274.050781 783.644531 275.148438 C 782 276.246094 780.308594 277.261719 778.566406 278.195312 C 776.824219 279.125 775.039062 279.96875 773.214844 280.726562 C 771.390625 281.480469 769.53125 282.148438 767.640625 282.722656 C 765.75 283.292969 763.835938 283.773438 761.898438 284.160156 C 759.960938 284.546875 758.007812 284.835938 756.042969 285.027344 C 754.078125 285.222656 752.105469 285.320312 750.128906 285.320312 C 748.15625 285.320312 746.183594 285.222656 744.21875 285.027344 C 742.253906 284.835938 740.300781 284.546875 738.363281 284.160156 C 736.425781 283.773438 734.511719 283.292969 732.621094 282.722656 C 730.730469 282.148438 728.871094 281.480469 727.046875 280.726562 C 725.222656 279.96875 723.4375 279.125 721.695312 278.195312 C 719.953125 277.261719 718.261719 276.246094 716.617188 275.148438 C 714.976562 274.050781 713.390625 272.875 711.863281 271.621094 C 710.335938 270.367188 708.875 269.042969 707.476562 267.644531 C 706.082031 266.25 704.757812 264.785156 703.503906 263.257812 C 702.25 261.730469 701.074219 260.144531 699.976562 258.503906 C 698.878906 256.859375 697.863281 255.164062 696.933594 253.421875 C 696.003906 251.679688 695.160156 249.894531 694.402344 248.070312 C 693.648438 246.246094 692.980469 244.386719 692.410156 242.496094 C 691.835938 240.601562 691.355469 238.6875 690.96875 236.75 C 690.585938 234.8125 690.296875 232.859375 690.101562 230.894531 C 689.90625 228.925781 689.8125 226.953125 689.8125 224.980469 C 689.8125 223.003906 689.914062 221.03125 690.109375 219.066406 C 690.304688 217.101562 690.59375 215.148438 690.980469 213.210938 C 691.367188 211.273438 691.851562 209.359375 692.425781 207.472656 C 693 205.582031 693.664062 203.722656 694.421875 201.898438 C 695.179688 200.074219 696.023438 198.289062 696.953125 196.546875 C 697.886719 194.808594 698.902344 193.113281 700 191.472656 C 701.097656 189.832031 702.273438 188.246094 703.523438 186.71875 C 704.777344 185.191406 706.101562 183.730469 707.5 182.332031 C 708.894531 180.9375 710.355469 179.609375 711.882812 178.355469 C 713.410156 177.105469 714.992188 175.929688 716.636719 174.828125 C 718.277344 173.730469 719.96875 172.714844 721.710938 171.785156 C 723.453125 170.851562 725.234375 170.007812 727.058594 169.25 C 728.882812 168.492188 730.738281 167.828125 732.628906 167.253906 C 734.519531 166.679688 736.429688 166.195312 738.367188 165.808594 C 740.304688 165.421875 742.253906 165.132812 744.21875 164.9375 C 746.1875 164.738281 748.15625 164.640625 750.128906 164.636719 Z M 750.128906 164.636719"/><g clip-path="url(#a)"><path fill="#FED449" d="M 644.742188 256.171875 C 644.589844 256.40625 644.46875 256.652344 644.375 256.914062 C 644.28125 257.175781 644.214844 257.445312 644.179688 257.722656 C 644.144531 257.996094 644.140625 258.273438 644.167969 258.550781 C 644.191406 258.828125 644.25 259.097656 644.335938 259.363281 C 644.421875 259.628906 644.535156 259.878906 644.675781 260.121094 C 644.816406 260.359375 644.984375 260.578125 645.175781 260.78125 C 645.363281 260.984375 645.574219 261.164062 645.804688 261.320312 C 646.035156 261.476562 646.28125 261.605469 646.539062 261.707031 L 667.53125 269.976562 C 668.523438 270.371094 669.488281 270.835938 670.417969 271.367188 C 671.34375 271.898438 672.230469 272.492188 673.078125 273.148438 C 673.921875 273.804688 674.71875 274.515625 675.460938 275.285156 C 676.207031 276.054688 676.894531 276.871094 677.523438 277.738281 C 678.152344 278.601562 678.71875 279.507812 679.21875 280.453125 C 679.71875 281.402344 680.152344 282.378906 680.515625 283.382812 C 680.878906 284.390625 681.167969 285.417969 681.386719 286.464844 C 681.601562 287.515625 681.746094 288.574219 681.816406 289.640625 L 683.203125 312.164062 C 683.21875 312.441406 683.265625 312.710938 683.34375 312.980469 C 683.421875 313.246094 683.527344 313.5 683.660156 313.746094 C 683.792969 313.988281 683.953125 314.214844 684.136719 314.421875 C 684.320312 314.632812 684.523438 314.816406 684.746094 314.980469 C 684.972656 315.144531 685.210938 315.28125 685.464844 315.390625 C 685.722656 315.5 685.984375 315.582031 686.257812 315.636719 C 686.53125 315.6875 686.804688 315.707031 687.082031 315.699219 C 687.359375 315.691406 687.632812 315.652344 687.902344 315.582031 L 709.769531 309.953125 C 710.804688 309.6875 711.855469 309.5 712.917969 309.382812 C 713.980469 309.265625 715.042969 309.226562 716.113281 309.261719 C 717.179688 309.296875 718.242188 309.40625 719.292969 309.589844 C 720.34375 309.773438 721.378906 310.03125 722.394531 310.359375 C 723.414062 310.691406 724.402344 311.089844 725.359375 311.5625 C 726.320312 312.03125 727.242188 312.566406 728.128906 313.164062 C 729.011719 313.765625 729.851562 314.425781 730.640625 315.144531 C 731.433594 315.859375 732.171875 316.632812 732.851562 317.453125 L 747.226562 334.863281 C 747.40625 335.078125 747.601562 335.269531 747.820312 335.4375 C 748.042969 335.609375 748.277344 335.753906 748.527344 335.871094 C 748.78125 335.992188 749.039062 336.078125 749.3125 336.140625 C 749.582031 336.203125 749.855469 336.230469 750.132812 336.230469 C 750.414062 336.230469 750.6875 336.203125 750.957031 336.140625 C 751.230469 336.078125 751.488281 335.992188 751.742188 335.871094 C 751.992188 335.753906 752.226562 335.609375 752.445312 335.4375 C 752.667969 335.269531 752.863281 335.078125 753.042969 334.863281 L 767.414062 317.453125 C 768.097656 316.632812 768.832031 315.863281 769.625 315.144531 C 770.417969 314.425781 771.253906 313.765625 772.140625 313.167969 C 773.023438 312.566406 773.945312 312.035156 774.90625 311.5625 C 775.867188 311.09375 776.855469 310.695312 777.871094 310.363281 C 778.886719 310.035156 779.921875 309.777344 780.976562 309.59375 C 782.027344 309.40625 783.089844 309.296875 784.15625 309.261719 C 785.226562 309.230469 786.289062 309.269531 787.351562 309.382812 C 788.414062 309.5 789.464844 309.6875 790.5 309.953125 L 812.367188 315.582031 C 812.910156 315.726562 813.457031 315.746094 814.011719 315.640625 C 814.5625 315.535156 815.066406 315.316406 815.519531 314.984375 C 815.976562 314.652344 816.339844 314.242188 816.609375 313.75 C 816.878906 313.253906 817.03125 312.726562 817.066406 312.167969 L 818.453125 289.640625 C 818.523438 288.574219 818.664062 287.515625 818.882812 286.464844 C 819.101562 285.417969 819.390625 284.390625 819.753906 283.382812 C 820.117188 282.378906 820.550781 281.402344 821.050781 280.457031 C 821.550781 279.511719 822.117188 278.605469 822.746094 277.738281 C 823.375 276.871094 824.0625 276.054688 824.804688 275.285156 C 825.550781 274.519531 826.347656 273.804688 827.191406 273.148438 C 828.035156 272.492188 828.921875 271.898438 829.851562 271.367188 C 830.78125 270.839844 831.742188 270.375 832.738281 269.980469 L 853.730469 261.707031 C 853.988281 261.605469 854.234375 261.476562 854.460938 261.320312 C 854.691406 261.164062 854.902344 260.984375 855.09375 260.78125 C 855.285156 260.578125 855.449219 260.359375 855.589844 260.121094 C 855.734375 259.882812 855.847656 259.628906 855.933594 259.363281 C 856.019531 259.101562 856.074219 258.828125 856.101562 258.554688 C 856.125 258.277344 856.121094 258 856.085938 257.722656 C 856.050781 257.449219 855.988281 257.179688 855.894531 256.917969 C 855.800781 256.65625 855.675781 256.410156 855.527344 256.175781 L 843.402344 237.136719 C 842.832031 236.234375 842.324219 235.292969 841.882812 234.316406 C 841.445312 233.339844 841.074219 232.335938 840.777344 231.308594 C 840.476562 230.28125 840.253906 229.234375 840.101562 228.175781 C 839.953125 227.117188 839.875 226.050781 839.875 224.980469 C 839.875 223.90625 839.953125 222.84375 840.101562 221.78125 C 840.253906 220.722656 840.476562 219.675781 840.777344 218.648438 C 841.074219 217.621094 841.445312 216.617188 841.882812 215.640625 C 842.324219 214.664062 842.832031 213.726562 843.402344 212.820312 L 855.523438 193.785156 C 855.675781 193.550781 855.796875 193.304688 855.890625 193.042969 C 855.984375 192.78125 856.050781 192.511719 856.085938 192.234375 C 856.121094 191.960938 856.125 191.683594 856.097656 191.40625 C 856.074219 191.128906 856.015625 190.859375 855.929688 190.59375 C 855.84375 190.328125 855.730469 190.078125 855.589844 189.839844 C 855.449219 189.597656 855.28125 189.378906 855.089844 189.175781 C 854.898438 188.972656 854.691406 188.792969 854.460938 188.636719 C 854.230469 188.480469 853.984375 188.351562 853.726562 188.25 L 832.730469 179.980469 C 831.738281 179.585938 830.773438 179.121094 829.84375 178.589844 C 828.917969 178.058594 828.027344 177.464844 827.183594 176.808594 C 826.339844 176.152344 825.542969 175.441406 824.800781 174.671875 C 824.054688 173.902344 823.367188 173.085938 822.738281 172.21875 C 822.109375 171.355469 821.542969 170.449219 821.042969 169.503906 C 820.542969 168.558594 820.109375 167.582031 819.746094 166.574219 C 819.382812 165.566406 819.09375 164.539062 818.875 163.492188 C 818.65625 162.441406 818.515625 161.386719 818.445312 160.316406 L 817.058594 137.792969 C 817.042969 137.515625 816.996094 137.246094 816.917969 136.980469 C 816.839844 136.710938 816.734375 136.457031 816.601562 136.214844 C 816.46875 135.96875 816.308594 135.742188 816.125 135.535156 C 815.941406 135.328125 815.738281 135.140625 815.515625 134.976562 C 815.289062 134.8125 815.050781 134.675781 814.792969 134.566406 C 814.539062 134.457031 814.277344 134.375 814.003906 134.324219 C 813.730469 134.269531 813.457031 134.25 813.179688 134.257812 C 812.898438 134.265625 812.628906 134.304688 812.359375 134.375 L 790.492188 140.003906 C 789.457031 140.269531 788.40625 140.457031 787.34375 140.574219 C 786.28125 140.6875 785.21875 140.730469 784.148438 140.695312 C 783.082031 140.660156 782.023438 140.550781 780.96875 140.367188 C 779.917969 140.183594 778.882812 139.925781 777.867188 139.59375 C 776.847656 139.265625 775.859375 138.863281 774.902344 138.394531 C 773.941406 137.925781 773.019531 137.390625 772.132812 136.789062 C 771.25 136.191406 770.410156 135.53125 769.621094 134.8125 C 768.828125 134.097656 768.089844 133.324219 767.410156 132.503906 L 753.039062 115.09375 C 752.855469 114.890625 752.652344 114.707031 752.429688 114.546875 C 752.210938 114.382812 751.972656 114.246094 751.722656 114.132812 C 751.472656 114.023438 751.214844 113.9375 750.945312 113.878906 C 750.675781 113.824219 750.40625 113.792969 750.128906 113.792969 C 749.855469 113.792969 749.585938 113.824219 749.316406 113.878906 C 749.046875 113.9375 748.789062 114.023438 748.539062 114.132812 C 748.289062 114.246094 748.050781 114.382812 747.832031 114.546875 C 747.609375 114.707031 747.40625 114.890625 747.222656 115.09375 L 732.851562 132.503906 C 732.171875 133.324219 731.433594 134.097656 730.640625 134.816406 C 729.847656 135.53125 729.011719 136.191406 728.125 136.792969 C 727.242188 137.390625 726.320312 137.925781 725.359375 138.398438 C 724.398438 138.867188 723.410156 139.265625 722.394531 139.597656 C 721.378906 139.925781 720.34375 140.183594 719.289062 140.367188 C 718.238281 140.550781 717.175781 140.660156 716.109375 140.695312 C 715.039062 140.730469 713.976562 140.691406 712.914062 140.574219 C 711.851562 140.457031 710.800781 140.269531 709.765625 140.003906 L 687.898438 134.375 C 687.355469 134.230469 686.808594 134.210938 686.253906 134.316406 C 685.699219 134.421875 685.199219 134.640625 684.746094 134.972656 C 684.289062 135.304688 683.925781 135.714844 683.65625 136.210938 C 683.386719 136.703125 683.234375 137.230469 683.199219 137.789062 L 681.8125 160.316406 C 681.742188 161.386719 681.601562 162.441406 681.382812 163.492188 C 681.164062 164.539062 680.875 165.566406 680.511719 166.574219 C 680.148438 167.578125 679.714844 168.554688 679.214844 169.5 C 678.714844 170.449219 678.148438 171.351562 677.519531 172.21875 C 676.890625 173.085938 676.203125 173.902344 675.460938 174.671875 C 674.714844 175.441406 673.917969 176.152344 673.074219 176.808594 C 672.230469 177.464844 671.339844 178.058594 670.414062 178.589844 C 669.484375 179.117188 668.519531 179.582031 667.527344 179.976562 L 646.539062 188.25 C 646.28125 188.351562 646.035156 188.480469 645.804688 188.636719 C 645.578125 188.792969 645.367188 188.972656 645.175781 189.175781 C 644.984375 189.378906 644.820312 189.597656 644.679688 189.835938 C 644.535156 190.078125 644.421875 190.328125 644.335938 190.59375 C 644.25 190.855469 644.195312 191.128906 644.167969 191.40625 C 644.144531 191.679688 644.148438 191.957031 644.183594 192.234375 C 644.21875 192.507812 644.28125 192.777344 644.375 193.039062 C 644.46875 193.300781 644.59375 193.546875 644.742188 193.78125 L 656.863281 212.820312 C 657.4375 213.726562 657.945312 214.664062 658.386719 215.640625 C 658.824219 216.617188 659.195312 217.621094 659.492188 218.648438 C 659.792969 219.675781 660.015625 220.722656 660.167969 221.78125 C 660.316406 222.84375 660.394531 223.90625 660.394531 224.980469 C 660.394531 226.050781 660.316406 227.117188 660.167969 228.175781 C 660.015625 229.234375 659.792969 230.28125 659.492188 231.308594 C 659.195312 232.335938 658.824219 233.339844 658.386719 234.316406 C 657.945312 235.292969 657.4375 236.234375 656.863281 237.136719 Z M 663.226562 208.761719 L 653.558594 193.589844 L 670.289062 186.996094 C 671.617188 186.46875 672.898438 185.851562 674.136719 185.144531 C 675.378906 184.4375 676.5625 183.644531 677.6875 182.769531 C 678.816406 181.894531 679.875 180.945312 680.867188 179.921875 C 681.863281 178.898438 682.777344 177.808594 683.617188 176.652344 C 684.457031 175.496094 685.210938 174.289062 685.878906 173.027344 C 686.546875 171.769531 687.121094 170.464844 687.605469 169.125 C 688.089844 167.78125 688.476562 166.410156 688.769531 165.011719 C 689.058594 163.617188 689.25 162.203125 689.339844 160.78125 L 690.449219 142.8125 L 707.90625 147.308594 C 709.289062 147.660156 710.6875 147.914062 712.101562 148.070312 C 713.519531 148.222656 714.941406 148.277344 716.363281 148.230469 C 717.789062 148.183594 719.203125 148.039062 720.605469 147.792969 C 722.007812 147.546875 723.386719 147.203125 724.742188 146.761719 C 726.097656 146.324219 727.417969 145.789062 728.695312 145.164062 C 729.976562 144.535156 731.207031 143.824219 732.386719 143.023438 C 733.5625 142.222656 734.679688 141.34375 735.738281 140.386719 C 736.792969 139.429688 737.773438 138.402344 738.683594 137.304688 L 750.128906 123.417969 L 761.601562 137.308594 C 762.511719 138.40625 763.496094 139.433594 764.550781 140.390625 C 765.605469 141.347656 766.722656 142.226562 767.902344 143.027344 C 769.078125 143.824219 770.308594 144.539062 771.589844 145.164062 C 772.867188 145.792969 774.1875 146.324219 775.539062 146.765625 C 776.894531 147.207031 778.273438 147.550781 779.675781 147.792969 C 781.082031 148.039062 782.496094 148.1875 783.917969 148.230469 C 785.34375 148.277344 786.761719 148.222656 788.179688 148.070312 C 789.59375 147.914062 790.992188 147.660156 792.375 147.308594 L 809.8125 142.816406 L 810.921875 160.785156 C 811.011719 162.207031 811.203125 163.621094 811.492188 165.015625 C 811.785156 166.414062 812.171875 167.785156 812.65625 169.125 C 813.140625 170.46875 813.714844 171.769531 814.382812 173.03125 C 815.054688 174.292969 815.804688 175.5 816.644531 176.652344 C 817.484375 177.808594 818.402344 178.898438 819.394531 179.921875 C 820.386719 180.949219 821.445312 181.898438 822.574219 182.773438 C 823.699219 183.648438 824.882812 184.4375 826.125 185.144531 C 827.363281 185.851562 828.644531 186.46875 829.972656 186.996094 L 846.703125 193.589844 L 837.039062 208.761719 C 836.277344 209.96875 835.597656 211.222656 835.011719 212.523438 C 834.425781 213.828125 833.933594 215.164062 833.535156 216.535156 C 833.136719 217.90625 832.835938 219.300781 832.636719 220.714844 C 832.433594 222.128906 832.332031 223.550781 832.332031 224.980469 C 832.332031 226.40625 832.433594 227.828125 832.636719 229.242188 C 832.835938 230.65625 833.136719 232.050781 833.535156 233.421875 C 833.933594 234.792969 834.425781 236.128906 835.011719 237.433594 C 835.597656 238.734375 836.277344 239.988281 837.039062 241.195312 L 846.707031 256.375 L 829.976562 262.96875 C 828.648438 263.496094 827.367188 264.113281 826.125 264.820312 C 824.886719 265.527344 823.703125 266.320312 822.578125 267.195312 C 821.449219 268.070312 820.390625 269.019531 819.394531 270.042969 C 818.402344 271.070312 817.488281 272.15625 816.648438 273.3125 C 815.808594 274.46875 815.054688 275.675781 814.386719 276.9375 C 813.71875 278.195312 813.144531 279.5 812.660156 280.839844 C 812.175781 282.183594 811.789062 283.554688 811.496094 284.953125 C 811.207031 286.347656 811.015625 287.761719 810.925781 289.183594 L 809.816406 307.152344 L 792.375 302.667969 C 790.992188 302.3125 789.59375 302.0625 788.175781 301.90625 C 786.761719 301.75 785.339844 301.695312 783.917969 301.742188 C 782.492188 301.789062 781.078125 301.933594 779.675781 302.179688 C 778.269531 302.425781 776.890625 302.769531 775.535156 303.210938 C 774.179688 303.648438 772.863281 304.183594 771.582031 304.8125 C 770.304688 305.4375 769.074219 306.152344 767.894531 306.953125 C 766.714844 307.75 765.597656 308.632812 764.542969 309.589844 C 763.488281 310.546875 762.503906 311.574219 761.59375 312.671875 L 750.128906 326.539062 L 738.660156 312.648438 C 737.238281 310.9375 735.644531 309.402344 733.886719 308.039062 C 732.125 306.679688 730.238281 305.523438 728.222656 304.578125 C 726.207031 303.636719 724.117188 302.921875 721.945312 302.4375 C 719.773438 301.953125 717.574219 301.710938 715.347656 301.710938 C 712.820312 301.710938 710.335938 302.023438 707.886719 302.65625 L 690.449219 307.148438 L 689.339844 289.179688 C 689.25 287.757812 689.058594 286.347656 688.765625 284.949219 C 688.476562 283.550781 688.089844 282.179688 687.605469 280.839844 C 687.121094 279.496094 686.546875 278.195312 685.875 276.933594 C 685.207031 275.671875 684.457031 274.464844 683.617188 273.3125 C 682.777344 272.15625 681.859375 271.066406 680.867188 270.042969 C 679.875 269.019531 678.816406 268.066406 677.6875 267.191406 C 676.5625 266.320312 675.378906 265.527344 674.136719 264.820312 C 672.898438 264.113281 671.617188 263.496094 670.289062 262.96875 L 653.558594 256.367188 L 663.222656 241.195312 C 663.984375 239.988281 664.664062 238.734375 665.25 237.433594 C 665.835938 236.128906 666.332031 234.792969 666.730469 233.421875 C 667.128906 232.050781 667.425781 230.65625 667.628906 229.242188 C 667.828125 227.828125 667.929688 226.40625 667.929688 224.980469 C 667.929688 223.550781 667.828125 222.128906 667.628906 220.714844 C 667.429688 219.300781 667.128906 217.90625 666.730469 216.535156 C 666.332031 215.164062 665.839844 213.828125 665.253906 212.523438 C 664.664062 211.222656 663.988281 209.96875 663.226562 208.761719 Z M 663.226562 208.761719"/></g><path fill="#FED449" d="M 750.128906 179.722656 L 750.128906 172.179688 C 748.402344 172.183594 746.679688 172.269531 744.960938 172.441406 C 743.238281 172.613281 741.53125 172.867188 739.839844 173.203125 C 738.144531 173.542969 736.46875 173.964844 734.816406 174.46875 C 733.164062 174.96875 731.539062 175.554688 729.941406 176.214844 C 728.34375 176.878906 726.785156 177.617188 725.261719 178.433594 C 723.738281 179.246094 722.257812 180.136719 720.820312 181.097656 C 719.382812 182.058594 718 183.085938 716.664062 184.183594 C 715.328125 185.28125 714.046875 186.4375 712.828125 187.660156 C 711.605469 188.882812 710.445312 190.164062 709.347656 191.5 C 708.253906 192.835938 707.222656 194.222656 706.261719 195.660156 C 705.304688 197.097656 704.414062 198.578125 703.601562 200.101562 C 702.785156 201.625 702.046875 203.1875 701.382812 204.78125 C 700.722656 206.378906 700.140625 208.003906 699.636719 209.660156 C 699.132812 211.3125 698.714844 212.988281 698.375 214.683594 C 698.035156 216.378906 697.78125 218.085938 697.609375 219.804688 C 697.4375 221.527344 697.351562 223.25 697.351562 224.980469 L 704.890625 224.980469 C 704.894531 223.496094 704.964844 222.019531 705.113281 220.542969 C 705.261719 219.070312 705.476562 217.605469 705.769531 216.152344 C 706.058594 214.699219 706.417969 213.265625 706.851562 211.847656 C 707.28125 210.429688 707.78125 209.035156 708.347656 207.667969 C 708.914062 206.300781 709.546875 204.960938 710.246094 203.65625 C 710.945312 202.347656 711.707031 201.078125 712.53125 199.847656 C 713.355469 198.617188 714.234375 197.425781 715.175781 196.28125 C 716.113281 195.136719 717.109375 194.039062 718.15625 192.992188 C 719.203125 191.945312 720.300781 190.953125 721.445312 190.011719 C 722.589844 189.070312 723.777344 188.1875 725.007812 187.367188 C 726.238281 186.542969 727.507812 185.78125 728.816406 185.082031 C 730.121094 184.382812 731.457031 183.75 732.824219 183.179688 C 734.195312 182.613281 735.585938 182.113281 737.003906 181.683594 C 738.421875 181.253906 739.855469 180.890625 741.308594 180.601562 C 742.761719 180.3125 744.222656 180.09375 745.699219 179.945312 C 747.171875 179.800781 748.648438 179.726562 750.128906 179.722656 Z M 750.128906 179.722656"/></svg>